SplineFontDB: 3.0
FontName: Muli-Bold
FullName: Muli Bold
FamilyName: Muli Bold
Weight: Bold
Copyright: Copyright (c) 2011 by vernon adams. All rights reserved.
Version: 
FONDName: Muli
ItalicAngle: 0
UnderlinePosition: -237
UnderlineWidth: 119
Ascent: 1638
Descent: 410
UFOAscent: 1463
UFODescent: -400
LayerCount: 2
Layer: 0 0 "Back"  1
Layer: 1 0 "Fore"  0
NeedsXUIDChange: 1
FSType: 0
OS2Version: 0
OS2_WeightWidthSlopeOnly: 0
OS2_UseTypoMetrics: 0
CreationTime: 1334786154
ModificationTime: 1334824363
PfmFamily: 0
TTFWeight: 700
TTFWidth: 5
LineGap: 0
VLineGap: 0
Panose: 2 0 5 3 0 0 0 15 0 4
OS2TypoAscent: 1978
OS2TypoAOffset: 0
OS2TypoDescent: -679
OS2TypoDOffset: 0
OS2TypoLinegap: 0
OS2WinAscent: 1978
OS2WinAOffset: 0
OS2WinDescent: 679
OS2WinDOffset: 0
HheadAscent: 0
HheadAOffset: 1
HheadDescent: 0
HheadDOffset: 1
OS2SubXSize: 6015
OS2SubYSize: 5583
OS2SubXOff: 0
OS2SubYOff: 1188
OS2SupXSize: 6015
OS2SupYSize: 5583
OS2SupXOff: 0
OS2SupYOff: 4098
OS2StrikeYSize: 102
OS2StrikeYPos: 512
OS2Vendor: 'newt'
OS2UnicodeRanges: 800000ef.5000204b.00000000.00000000
Lookup: 258 0 0 "'kern' Horizontal Kerning in Latin lookup 0"  {"'kern' Horizontal Kerning in Latin lookup 0 subtable" [307,30,0] "'kern' Horizontal Kerning lookup 1 kerning class 1"  } ['kern' ('DFLT' <'dflt' > 'latn' <'dflt' > ) ]
MarkAttachClasses: 1
DEI: 91125
KernClass2: 25 23 "'kern' Horizontal Kerning lookup 1 kerning class 1" 
 81 A Aacute Abreve Acircumflex Adieresis Agrave Amacron Aogonek Aring Atilde uni0202
 1 B
 75 D Eth O Oacute Ocircumflex Odieresis Ograve Oslash Otilde Q uni020C uni020E
 1 F
 1 J
 1 K
 1 L
 1 P
 44 R Racute Rcaron Rcommaaccent uni0210 uni0212
 22 T Tcommaaccent uni021A
 1 V
 1 W
 18 Y Yacute Ydieresis
 69 b o oacute ocircumflex odieresis ograve oslash otilde p thorn uni020F
 1 d
 1 e
 1 f
 24 h hbar m n nacute ntilde
 27 k kcommaaccent kgreenlandic
 29 r rcaron rcommaaccent uni0213
 22 t tcommaaccent uni021B
 1 v
 1 w
 18 y yacute ydieresis

StartChar: A
Encoding: 55 65 1
Width: 1462
VWidth: 0
Flags: HW
LayerCount: 2
Fore
SplineSet
724 1179 m 1
 498 586 l 1
 946 586 l 1
 724 1179 l 1
414 364 m 1
 273 0 l 1
 8 0 l 1
 609 1456 l 1
 848 1456 l 1
 1454 0 l 1
 1182 0 l 1
 1038 364 l 1
 414 364 l 1
EndSplineSet
EndChar

StartChar: AE
Encoding: 155 198 2
Width: 2250
VWidth: 0
Flags: HW
LayerCount: 2
Fore
SplineSet
1038 1179 m 1
 653 586 l 1
 1101 586 l 1
 1038 1179 l 1
510 364 m 1
 272 0 l 1
 8 0 l 1
 996 1456 l 1
 1900 1456 l 1
 1930 1249 l 1
 1266 1249 l 1
 1326 849 l 1
 1953 849 l 1
 1983 641 l 1
 1357 641 l 1
 1422 207 l 1
 2114 207 l 1
 2144 0 l 1
 1181 0 l 1
 1134 364 l 1
 510 364 l 1
EndSplineSet
EndChar

StartChar: B
Encoding: 56 66 12
Width: 1296
VWidth: 0
Flags: HW
LayerCount: 2
Fore
SplineSet
581 649 m 2
 403 649 l 1
 403 207 l 1
 632 207 l 2
 836 207 948 275 948 419 c 0
 948 597 820 649 581 649 c 2
401 1249 m 1
 401 857 l 1
 609 857 l 2
 745 857 883 901 883 1062 c 0
 883 1220 744 1249 563 1249 c 2
 401 1249 l 1
675 0 m 2
 159 0 l 1
 159 1456 l 1
 523 1456 l 2
 777 1456 1140 1429 1140 1088 c 0
 1140 957 1063 840 936 775 c 1
 1110 720 1207 588 1207 414 c 0
 1207 196 1027 0 675 0 c 2
EndSplineSet
EndChar

StartChar: C
Encoding: 57 67 13
Width: 1406
VWidth: 0
Flags: HW
LayerCount: 2
Fore
SplineSet
1246 339 m 1
 1327 140 l 1
 1191 33 1019 -23 815 -23 c 0
 337 -23 106 340 106 710 c 0
 106 1093 341 1483 796 1483 c 0
 991 1483 1150 1429 1290 1308 c 1
 1195 1140 l 1
 1069 1228 942 1275 817 1275 c 0
 515 1275 360 991 360 713 c 0
 360 446 515 184 835 184 c 0
 972 184 1118 237 1246 339 c 1
EndSplineSet
EndChar

StartChar: D
Encoding: 58 68 18
Width: 1532
VWidth: 0
Flags: HW
LayerCount: 2
Fore
SplineSet
405 1249 m 1
 405 207 l 1
 616 207 l 2
 990 207 1170 422 1170 724 c 0
 1170 1119 950 1249 524 1249 c 2
 405 1249 l 1
165 0 m 1
 159 1456 l 1
 501 1456 l 2
 996 1456 1426 1256 1426 723 c 0
 1426 279 1119 0 603 0 c 2
 165 0 l 1
EndSplineSet
EndChar

StartChar: E
Encoding: 59 69 19
Width: 1209
VWidth: 0
Flags: HW
LayerCount: 2
Fore
SplineSet
403 207 m 1
 1098 207 l 1
 1098 0 l 1
 159 0 l 1
 159 1456 l 1
 1069 1456 l 1
 1069 1249 l 1
 401 1249 l 1
 401 849 l 1
 1032 849 l 1
 1032 641 l 1
 403 641 l 1
 403 207 l 1
EndSplineSet
EndChar

StartChar: Eth
Encoding: 165 208 26
Width: 1520
VWidth: 0
Flags: HW
LayerCount: 2
Fore
SplineSet
405 611 m 1
 405 205 l 1
 610 205 l 2
 984 205 1159 419 1159 718 c 0
 1159 1108 943 1238 519 1238 c 2
 402 1238 l 1
 402 806 l 1
 595 806 l 1
 595 611 l 1
 405 611 l 1
163 611 m 1
 -22 611 l 1
 -22 806 l 1
 161 806 l 1
 161 1443 l 1
 498 1443 l 2
 989 1443 1413 1245 1413 717 c 0
 1413 277 1110 0 597 0 c 2
 163 0 l 1
 163 611 l 1
EndSplineSet
EndChar

StartChar: Euro
Encoding: 399 8364 27
Width: 1190
VWidth: 0
Flags: HW
LayerCount: 2
Fore
SplineSet
44 483 m 1
 70 676 l 1
 161 676 l 1
 161 736 l 1
 39 736 l 1
 69 929 l 1
 185 929 l 1
 247 1218 439 1421 749 1421 c 0
 888 1421 1007 1378 1099 1285 c 1
 1053 1120 l 1
 956 1186 842 1222 747 1222 c 0
 579 1222 487 1098 438 929 c 1
 988 929 l 1
 961 736 l 1
 411 736 l 1
 411 723 412 706 413 691 c 0
 413 687 414 683 414 679 c 2
 414 676 l 1
 956 676 l 1
 932 483 l 1
 430 483 l 1
 461 304 558 182 736 182 c 0
 817 182 929 205 1075 261 c 1
 1075 86 l 1
 967 13 849 -21 722 -21 c 0
 394 -21 228 183 179 483 c 1
 44 483 l 1
EndSplineSet
EndChar

StartChar: F
Encoding: 60 70 28
Width: 1132
VWidth: 0
Flags: HW
LayerCount: 2
Fore
SplineSet
402 636 m 1
 402 0 l 1
 159 0 l 1
 159 1456 l 1
 1046 1456 l 1
 1046 1249 l 1
 402 1249 l 1
 402 844 l 1
 1013 844 l 1
 1013 636 l 1
 402 636 l 1
EndSplineSet
EndChar

StartChar: G
Encoding: 61 71 29
Width: 1538
VWidth: 0
Flags: HW
LayerCount: 2
Fore
SplineSet
1123 581 m 1
 778 581 l 1
 778 788 l 1
 1368 788 l 1
 1372 92 l 1
 1192 11 1018 -23 850 -23 c 0
 362 -23 106 267 106 704 c 0
 106 1129 388 1483 874 1483 c 0
 1049 1483 1209 1435 1358 1329 c 1
 1261 1168 l 1
 1128 1243 991 1275 876 1275 c 0
 532 1275 358 1004 358 715 c 0
 358 404 522 184 861 184 c 0
 947 184 1040 201 1123 227 c 1
 1123 581 l 1
EndSplineSet
EndChar

StartChar: H
Encoding: 62 72 31
Width: 1488
VWidth: 0
Flags: HW
LayerCount: 2
Fore
SplineSet
404 643 m 1
 404 0 l 1
 159 0 l 1
 159 1456 l 1
 400 1456 l 1
 400 851 l 1
 1086 851 l 1
 1086 1456 l 1
 1329 1456 l 1
 1329 0 l 1
 1090 0 l 1
 1090 643 l 1
 404 643 l 1
EndSplineSet
EndChar

StartChar: I
Encoding: 63 73 32
Width: 591
VWidth: 0
Flags: HW
LayerCount: 2
Fore
SplineSet
415 1456 m 1
 415 0 l 1
 175 0 l 1
 175 1456 l 1
 415 1456 l 1
EndSplineSet
EndChar

StartChar: J
Encoding: 64 74 41
Width: 932
VWidth: 0
Flags: HW
LayerCount: 2
Fore
SplineSet
-16 138 m 1
 76 302 l 1
 159 230 240 184 319 184 c 0
 450 184 523 336 527 499 c 1
 521 1456 l 1
 769 1456 l 1
 773 508 l 1
 773 179 599 -23 315 -23 c 0
 183 -23 71 40 -16 138 c 1
EndSplineSet
EndChar

StartChar: K
Encoding: 65 75 43
Width: 1322
VWidth: 0
Flags: HW
LayerCount: 2
Fore
SplineSet
401 1456 m 1
 401 855 l 1
 493 951 582 1046 966 1456 c 1
 1268 1456 l 1
 583 752 l 1
 824 505 1076 247 1317 0 c 1
 1004 0 l 1
 403 639 l 1
 403 0 l 1
 159 0 l 1
 159 1456 l 1
 401 1456 l 1
EndSplineSet
EndChar

StartChar: L
Encoding: 66 76 44
Width: 1111
VWidth: 0
Flags: HW
LayerCount: 2
Fore
SplineSet
1075 207 m 1
 1075 0 l 1
 159 0 l 1
 159 1456 l 1
 401 1456 l 1
 401 207 l 1
 1075 207 l 1
EndSplineSet
EndChar

StartChar: Lslash
Encoding: 276 321 46
Width: 1120
VWidth: 0
Flags: HW
LayerCount: 2
Fore
SplineSet
1074 205 m 1
 1074 0 l 1
 166 0 l 1
 166 548 l 1
 39 431 l 1
 39 643 l 1
 163 761 l 1
 163 1443 l 1
 407 1443 l 1
 407 958 l 1
 527 1086 l 1
 527 844 l 1
 409 735 l 1
 409 205 l 1
 1074 205 l 1
EndSplineSet
EndChar

StartChar: M
Encoding: 67 77 47
Width: 1924
VWidth: 0
Flags: HW
LayerCount: 2
Fore
SplineSet
392 0 m 1
 159 0 l 1
 159 1456 l 1
 453 1456 l 1
 965 323 l 1
 1472 1456 l 1
 1765 1456 l 1
 1765 0 l 1
 1538 0 l 1
 1538 1053 l 1
 1378 705 1213 346 1053 0 c 1
 875 0 l 1
 392 1041 l 1
 392 0 l 1
EndSplineSet
EndChar

StartChar: N
Encoding: 68 78 48
Width: 1545
VWidth: 0
Flags: HW
LayerCount: 2
Fore
SplineSet
1128 0 m 1
 383 1098 l 1
 383 0 l 1
 159 0 l 1
 159 1456 l 1
 416 1456 l 1
 1156 358 l 1
 1156 1456 l 1
 1386 1456 l 1
 1386 0 l 1
 1128 0 l 1
EndSplineSet
EndChar

StartChar: O
Encoding: 69 79 52
Width: 1662
VWidth: 0
Flags: HW
LayerCount: 2
Fore
SplineSet
367 725 m 0
 367 421 521 184 830 184 c 0
 1139 184 1293 420 1293 733 c 0
 1293 1040 1139 1276 834 1276 c 0
 529 1276 367 1019 367 725 c 0
1556 722 m 0
 1556 283 1289 -23 835 -23 c 0
 380 -23 106 271 106 731 c 0
 106 1166 379 1483 838 1483 c 0
 1280 1483 1556 1182 1556 722 c 0
EndSplineSet
EndChar

StartChar: OE
Encoding: 290 338 53
Width: 2107
VWidth: 0
Flags: HW
LayerCount: 2
Fore
SplineSet
1335 207 m 1
 1951 207 l 1
 1951 0 l 1
 1091 0 l 1
 1091 54 l 1
 966 0 837 -24 720 -24 c 0
 378 -24 106 300 106 731 c 0
 106 1134 390 1482 727 1482 c 0
 844 1482 971 1457 1091 1402 c 1
 1091 1456 l 1
 1922 1456 l 1
 1922 1249 l 1
 1333 1249 l 1
 1333 849 l 1
 1885 849 l 1
 1885 641 l 1
 1335 641 l 1
 1335 207 l 1
367 725 m 0
 367 416 546 167 771 167 c 0
 872 167 983 189 1091 238 c 1
 1091 1201 l 1
 982 1253 869 1275 766 1275 c 0
 547 1275 367 1019 367 725 c 0
EndSplineSet
EndChar

StartChar: Omega
Encoding: 380 937 58
Width: 1603
VWidth: 0
Flags: HW
LayerCount: 2
Fore
SplineSet
81 0 m 1
 36 196 l 1
 333 194 l 1
 181 336 86 527 86 768 c 0
 86 1176 384 1437 785 1437 c 0
 1201 1437 1464 1144 1464 758 c 0
 1464 512 1353 326 1210 194 c 1
 1247 194 1283 194 1319 195 c 1
 1363 195 1416 196 1459 196 c 1
 1438 0 l 1
 883 0 l 1
 877 163 l 1
 1069 295 1211 503 1211 746 c 0
 1211 1010 1067 1239 783 1239 c 0
 522 1239 340 1037 340 749 c 0
 340 506 474 290 668 163 c 1
 673 0 l 1
 81 0 l 1
EndSplineSet
EndChar

StartChar: Oslash
Encoding: 173 216 59
Width: 1663
VWidth: 0
Flags: HW
LayerCount: 2
Fore
SplineSet
1293 733 m 0
 1293 901 1246 1048 1154 1147 c 1
 661 212 l 1
 711 194 767 184 830 184 c 0
 1139 184 1293 420 1293 733 c 0
367 725 m 0
 367 544 421 387 530 290 c 1
 1029 1237 l 1
 973 1262 908 1276 834 1276 c 0
 529 1276 367 1019 367 725 c 0
1556 722 m 0
 1556 283 1289 -23 835 -23 c 0
 734 -23 641 -8 559 19 c 1
 479 -134 l 1
 343 -66 l 1
 421 83 l 1
 219 208 106 435 106 731 c 0
 106 1166 379 1483 838 1483 c 0
 946 1483 1044 1465 1131 1431 c 1
 1200 1561 l 1
 1336 1493 l 1
 1265 1359 l 1
 1450 1229 1556 1006 1556 722 c 0
EndSplineSet
EndChar

StartChar: P
Encoding: 70 80 61
Width: 1259
VWidth: 0
Flags: HW
LayerCount: 2
Fore
SplineSet
401 1249 m 1
 401 769 l 1
 611 769 l 2
 797 769 933 841 933 1006 c 0
 933 1204 782 1249 566 1249 c 2
 401 1249 l 1
401 560 m 1
 407 0 l 1
 159 0 l 1
 159 1456 l 1
 524 1456 l 2
 868 1456 1196 1381 1196 1006 c 0
 1196 692 900 560 577 560 c 2
 401 560 l 1
EndSplineSet
EndChar

StartChar: Q
Encoding: 71 81 62
Width: 1657
VWidth: 0
Flags: HW
LayerCount: 2
Fore
SplineSet
1389 -298 m 1
 1254 -443 l 1
 1254 -443 1050 -260 923 -8 c 1
 883 -13 855 -18 832 -18 c 0
 387 -18 106 290 106 747 c 0
 106 1182 388 1483 833 1483 c 0
 1275 1483 1551 1181 1551 735 c 0
 1551 426 1412 144 1136 35 c 1
 1217 -134 1389 -298 1389 -298 c 1
362 723 m 0
 362 423 516 184 825 184 c 0
 1134 184 1287 420 1287 733 c 0
 1287 1038 1137 1275 829 1275 c 0
 521 1275 362 1017 362 723 c 0
EndSplineSet
EndChar

StartChar: R
Encoding: 72 82 63
Width: 1349
VWidth: 0
Flags: HW
LayerCount: 2
Fore
SplineSet
402 1249 m 1
 402 828 l 1
 617 828 l 2
 770 828 935 874 935 1045 c 0
 935 1211 802 1249 631 1249 c 2
 402 1249 l 1
1293 0 m 1
 1025 0 l 1
 869 422 l 1
 813 570 762 623 624 623 c 2
 405 623 l 1
 405 0 l 1
 159 0 l 1
 159 1456 l 1
 540 1456 l 2
 782 1456 1191 1453 1191 1058 c 0
 1191 901 1098 779 947 709 c 1
 1036 643 1080 529 1133 389 c 2
 1192 235 l 1
 1293 0 l 1
EndSplineSet
EndChar

StartChar: S
Encoding: 73 83 67
Width: 1221
VWidth: 0
Flags: HW
LayerCount: 2
Fore
SplineSet
100 144 m 1
 201 315 l 1
 289 245 439 184 563 184 c 0
 746 184 877 254 877 393 c 0
 877 511 708 583 553 646 c 0
 344 730 101 831 101 1080 c 0
 101 1342 372 1483 641 1483 c 0
 810 1483 1007 1444 1116 1309 c 1
 986 1158 l 1
 890 1250 755 1275 645 1275 c 0
 513 1275 359 1224 359 1088 c 0
 359 964 514 911 674 845 c 0
 883 759 1134 640 1134 389 c 0
 1134 92 844 -23 577 -23 c 0
 371 -23 196 49 100 144 c 1
EndSplineSet
EndChar

StartChar: T
Encoding: 74 84 71
Width: 1174
VWidth: 0
Flags: HW
LayerCount: 2
Fore
SplineSet
704 0 m 1
 463 0 l 1
 463 1249 l 1
 11 1249 l 1
 11 1456 l 1
 1163 1456 l 1
 1163 1249 l 1
 704 1249 l 1
 704 0 l 1
EndSplineSet
EndChar

StartChar: Thorn
Encoding: 179 222 73
Width: 1296
VWidth: 0
Flags: HW
LayerCount: 2
Fore
SplineSet
431 1165 m 1
 431 688 l 1
 639 688 l 2
 823 688 958 759 958 924 c 0
 958 1120 808 1165 594 1165 c 2
 431 1165 l 1
431 481 m 1
 431 0 l 1
 192 0 l 1
 192 1443 l 1
 433 1443 l 1
 433 1370 l 1
 552 1370 l 2
 895 1370 1218 1295 1218 924 c 0
 1218 612 924 481 606 481 c 2
 431 481 l 1
EndSplineSet
EndChar

StartChar: U
Encoding: 75 85 74
Width: 1434
VWidth: 0
Flags: HW
LayerCount: 2
Fore
SplineSet
717 184 m 0
 920 184 1056 259 1056 553 c 2
 1056 1456 l 1
 1305 1456 l 1
 1305 570 l 2
 1305 240 1190 -23 717 -23 c 0
 244 -23 129 240 129 570 c 2
 129 1456 l 1
 378 1456 l 1
 378 553 l 2
 378 259 514 184 717 184 c 0
EndSplineSet
EndChar

StartChar: V
Encoding: 76 86 79
Width: 1378
VWidth: 0
Flags: HW
LayerCount: 2
Fore
SplineSet
695 314 m 1
 695 311 l 1
 697 317 l 1
 1119 1456 l 1
 1372 1456 l 1
 811 0 l 1
 569 0 l 1
 6 1456 l 1
 278 1456 l 1
 695 314 l 1
EndSplineSet
EndChar

StartChar: W
Encoding: 77 87 80
Width: 2103
VWidth: 0
Flags: HW
LayerCount: 2
Fore
SplineSet
941 1456 m 1
 1174 1456 l 1
 1535 308 l 1
 1834 1456 l 1
 2088 1456 l 1
 1667 0 l 1
 1393 0 l 1
 1051 1142 l 1
 703 0 l 1
 436 0 l 1
 14 1456 l 1
 276 1456 l 1
 588 312 l 1
 941 1456 l 1
EndSplineSet
EndChar

StartChar: X
Encoding: 78 88 81
Width: 1376
VWidth: 0
Flags: HW
LayerCount: 2
Fore
SplineSet
9 0 m 1
 546 741 l 1
 500 808 451 874 403 944 c 2
 43 1456 l 1
 341 1456 l 1
 704 913 l 1
 854 1133 l 2
 925 1236 1006 1353 1075 1456 c 1
 1355 1456 l 1
 846 742 l 1
 895 671 947 599 996 528 c 1
 1115 360 1253 164 1367 0 c 1
 1068 0 l 1
 680 570 l 1
 554 383 421 187 297 0 c 1
 9 0 l 1
EndSplineSet
EndChar

StartChar: Y
Encoding: 79 89 82
Width: 1303
VWidth: 0
Flags: HW
LayerCount: 2
Fore
SplineSet
1314 1456 m 1
 765 584 l 1
 765 0 l 1
 524 0 l 1
 524 582 l 1
 -11 1456 l 1
 263 1456 l 1
 649 797 l 1
 836 1117 l 2
 901 1228 969 1343 1034 1456 c 1
 1314 1456 l 1
EndSplineSet
EndChar

StartChar: Z
Encoding: 80 90 85
Width: 1235
VWidth: 0
Flags: HW
LayerCount: 2
Fore
SplineSet
1167 207 m 1
 1167 0 l 1
 44 0 l 1
 44 130 l 1
 836 1249 l 1
 71 1249 l 1
 71 1456 l 1
 1169 1456 l 1
 1169 1330 l 1
 372 207 l 1
 1167 207 l 1
EndSplineSet
EndChar

StartChar: a
Encoding: 87 97 89
Width: 1267
VWidth: 0
Flags: HW
LayerCount: 2
Fore
SplineSet
624 168 m 4
 828 168 911 318 911 515 c 4
 911 717 822 861 624 861 c 4
 426 861 335 717 335 515 c 4
 335 317 420 168 624 168 c 4
593 1052 m 5
 721 1051 847 989 903 879 c 5
 903 1026 l 5
 1134 1026 l 5
 1134 0 l 5
 898 0 l 5
 898 155 l 5
 837 32 706 -23 593 -23 c 4
 254 -23 100 254 100 504 c 4
 100 781 255 1052 593 1052 c 5
EndSplineSet
EndChar

StartChar: acute
Encoding: 137 180 93
Width: 607
VWidth: 0
Flags: HW
LayerCount: 2
Fore
SplineSet
304 1463 m 1
 607 1463 l 1
 259 1148 l 1
 45 1148 l 1
 304 1463 l 1
EndSplineSet
EndChar

StartChar: ae
Encoding: 187 230 95
Width: 1807
VWidth: 0
Flags: HW
LayerCount: 2
Fore
SplineSet
959 636 m 1
 1443 636 l 1
 1425 792 1330 869 1219 869 c 0
 1076 869 989 771 959 636 c 1
726 448 m 1
 616 447 l 2
 447 445 291 431 291 302 c 0
 291 204 374 167 469 167 c 0
 664 167 723 304 726 448 c 1
1560 292 m 1
 1628 107 l 1
 1515 19 1391 -23 1244 -23 c 0
 1063 -23 926 64 840 198 c 1
 767 52 613 -23 459 -23 c 0
 221 -23 61 89 61 292 c 0
 61 567 270 637 687 637 c 2
 726 637 l 1
 725 750 661 861 531 861 c 0
 428 861 311 830 208 736 c 1
 140 920 l 1
 232 1001 368 1052 551 1052 c 0
 635 1052 801 1000 864 881 c 1
 943 985 1059 1052 1207 1052 c 0
 1512 1052 1649 818 1649 523 c 0
 1649 512 1648 494 1644 478 c 1
 955 478 l 1
 963 265 1074 168 1251 168 c 0
 1355 168 1460 210 1560 292 c 1
EndSplineSet
EndChar

StartChar: ampersand
Encoding: 28 38 98
Width: 1647
VWidth: 0
Flags: HW
LayerCount: 2
Fore
SplineSet
511 1134 m 0
 511 1059 552 997 619 934 c 1
 714 989 794 1053 794 1136 c 0
 794 1224 719 1254 654 1254 c 0
 574 1254 511 1217 511 1134 c 0
641 173 m 0
 783 173 882 231 967 304 c 1
 573 691 l 1
 452 627 343 551 343 413 c 0
 343 273 469 173 641 173 c 0
90 412 m 0
 90 623 250 740 430 838 c 1
 329 940 265 1020 265 1139 c 0
 265 1341 437 1444 644 1444 c 0
 842 1444 1039 1350 1039 1145 c 0
 1039 998 914 880 769 795 c 1
 1100 462 l 1
 1180 596 1214 753 1214 919 c 1
 1447 874 l 1
 1447 672 1376 451 1264 296 c 1
 1367 196 1426 172 1624 129 c 1
 1435 -17 l 1
 1291 4 1222 54 1117 156 c 1
 1003 55 842 -27 640 -27 c 0
 329 -27 90 136 90 412 c 0
EndSplineSet
EndChar

StartChar: approxequal
Encoding: 408 8776 100
Width: 1351
VWidth: 0
Flags: HW
LayerCount: 2
Fore
SplineSet
1000 933 m 1
 1182 890 l 1
 1140 711 1039 596 861 596 c 0
 768 596 694 623 587 688 c 0
 531 722 480 750 437 750 c 0
 375 750 335 681 305 587 c 1
 112 628 l 1
 152 810 271 924 440 924 c 0
 530 924 603 892 695 837 c 1
 771 794 832 768 865 768 c 0
 922 768 962 829 1000 933 c 1
1001 587 m 1
 1183 540 l 1
 1139 365 1044 246 862 246 c 0
 780 246 692 283 591 343 c 1
 537 371 478 399 442 399 c 0
 373 399 328 335 303 232 c 1
 113 283 l 1
 161 463 278 577 441 577 c 0
 536 577 628 532 708 490 c 1
 731 481 749 472 768 462 c 0
 807 441 844 422 866 422 c 0
 924 422 964 483 1001 587 c 1
EndSplineSet
EndChar

StartChar: asciicircum
Encoding: 84 94 102
Width: 1457
VWidth: 0
Flags: HW
LayerCount: 2
Fore
SplineSet
369 517 m 1
 128 517 l 1
 615 1405 l 1
 767 1405 l 1
 1260 517 l 1
 1023 517 l 1
 688 1138 l 1
 669 1103 647 1062 630 1027 c 1
 543 860 450 679 369 517 c 1
EndSplineSet
EndChar

StartChar: asciitilde
Encoding: 116 126 103
Width: 1458
VWidth: 0
Flags: HW
LayerCount: 2
Fore
SplineSet
479 726 m 0
 566 726 675 675 765 633 c 1
 785 623 l 1
 838 599 887 576 916 576 c 0
 976 576 1026 663 1047 754 c 1
 1247 693 l 1
 1208 515 1092 383 918 383 c 0
 854 383 769 421 687 463 c 1
 664 474 l 1
 595 504 530 535 485 535 c 0
 409 535 359 438 335 343 c 1
 152 431 l 1
 182 583 301 726 479 726 c 0
EndSplineSet
EndChar

StartChar: asterisk
Encoding: 32 42 104
Width: 1065
VWidth: 0
Flags: HW
LayerCount: 2
Fore
SplineSet
515 906 m 1
 352 663 l 1
 173 783 l 1
 379 1012 l 1
 109 1120 l 1
 189 1292 l 1
 434 1175 l 1
 404 1444 l 1
 626 1444 l 1
 596 1175 l 1
 841 1292 l 1
 921 1120 l 1
 651 1012 l 1
 857 783 l 1
 678 663 l 1
 515 906 l 1
EndSplineSet
EndChar

StartChar: at
Encoding: 54 64 105
Width: 1895
VWidth: 0
Flags: HW
LayerCount: 2
Fore
SplineSet
685 576 m 0
 685 486 728 426 808 426 c 0
 950 426 1056 612 1056 801 c 0
 1056 891 1027 943 949 943 c 0
 794 943 685 739 685 576 c 0
1690 772 m 0
 1690 517 1505 211 1239 211 c 0
 1167 211 1063 254 1063 404 c 0
 1063 425 1065 447 1069 472 c 1
 1013 321 896 248 777 248 c 0
 618 248 455 366 455 606 c 0
 455 910 714 1132 911 1132 c 0
 1005 1132 1085 1080 1117 960 c 1
 1139 1090 l 1
 1347 1090 l 1
 1253 618 l 2
 1229 498 1209 421 1209 380 c 0
 1209 357 1217 333 1244 333 c 0
 1397 333 1533 543 1533 778 c 0
 1533 1131 1255 1308 962 1308 c 0
 636 1308 293 1089 293 652 c 0
 293 242 600 45 936 45 c 0
 1098 45 1267 91 1417 180 c 1
 1487 80 l 1
 1328 -36 1128 -102 918 -102 c 0
 440 -102 99 229 99 671 c 0
 99 1110 468 1447 938 1447 c 0
 1359 1447 1690 1169 1690 772 c 0
EndSplineSet
EndChar

StartChar: b
Encoding: 88 98 107
Width: 1241
VWidth: 0
Flags: HW
LayerCount: 2
Fore
SplineSet
627 168 m 0
 817 168 894 328 894 515 c 0
 894 707 811 861 627 861 c 0
 443 861 358 707 358 515 c 0
 358 328 437 168 627 168 c 0
371 1463 m 1
 371 922 l 5
 432 989.6 526 1052 657 1052 c 0
 978 1052 1141 802 1141 508 c 0
 1141 182 936 -23 674 -23 c 0
 573 -23 458 -6.69491525424 371 125 c 1
 369 0 l 1
 128 0 l 1
 135 215 136 243 136 272 c 2
 136 1463 l 1
 371 1463 l 1
EndSplineSet
EndChar

StartChar: backslash
Encoding: 82 92 108
Width: 706
VWidth: 0
Flags: HW
LayerCount: 2
Fore
SplineSet
802 -112 m 1
 557 -112 l 1
 -115 1424 l 1
 134 1424 l 1
 802 -112 l 1
EndSplineSet
EndChar

StartChar: bar
Encoding: 114 124 109
Width: 500
VWidth: 0
Flags: HW
LayerCount: 2
Fore
SplineSet
348 -460 m 1
 123 -460 l 1
 123 1512 l 1
 348 1512 l 1
 348 -460 l 1
EndSplineSet
EndChar

StartChar: braceleft
Encoding: 113 123 110
Width: 627
VWidth: 0
Flags: HW
LayerCount: 2
Fore
SplineSet
200 896 m 1
 199 942 197 965 197 978 c 2
 197 993 l 1
 197 993 197 1013 196 1035 c 0
 196 1050 195 1070 194 1099 c 1
 194 1304 290 1424 578 1424 c 1
 579 1240 l 1
 497 1239 436 1187 436 1115 c 2
 435 847 l 1
 433 734 390 647 337 592 c 1
 425 523 431 397 431 335 c 0
 431 321 430 311 429 302 c 0
 428 288 426 260 426 232 c 0
 426 -5 451 -59 578 -59 c 1
 579 -245 l 1
 351 -228 198 -156 197 42 c 2
 196 289 l 2
 195 391 201 492 51 505 c 1
 48 673 l 1
 158 683 197 782 200 896 c 1
EndSplineSet
EndChar

StartChar: braceright
Encoding: 115 125 111
Width: 627
VWidth: 0
Flags: HW
LayerCount: 2
Fore
SplineSet
32 1240 m 1
 31 1424 l 1
 34 1424 50 1425 54 1425 c 2
 81 1425 l 2
 355 1425 413 1278 413 1069 c 1
 412 1026 411 1002 411 989 c 0
 411 978 410 973 410 967 c 0
 410 954 410 941 408 864 c 1
 412 746 471 680 562 672 c 1
 562 504 l 1
 430 486 415 407 415 330 c 0
 415 323 416 316 416 310 c 2
 416 259 l 1
 419 40 l 1
 419 -156 269 -215 31 -245 c 1
 30 -59 l 1
 168 -59 183 36 183 184 c 2
 183 218 l 2
 183 229 182 242 182 255 c 2
 182 294 l 2
 182 308 181 329 181 344 c 1
 220 344 l 1
 215 345 172 365 172 404 c 0
 172 459 191 539 283 596 c 1
 278 602 l 1
 244 632 173 698 172 848 c 1
 172 1107 l 1
 171 1231 108 1239 32 1240 c 1
EndSplineSet
EndChar

StartChar: bracketleft
Encoding: 81 91 112
Width: 628
VWidth: 0
Flags: HW
LayerCount: 2
Fore
SplineSet
566 -63 m 1
 566 -243 l 1
 146 -243 l 1
 146 1424 l 1
 565 1424 l 1
 565 1244 l 1
 384 1244 l 1
 384 -63 l 1
 566 -63 l 1
EndSplineSet
EndChar

StartChar: bracketright
Encoding: 83 93 113
Width: 628
VWidth: 0
Flags: HW
LayerCount: 2
Fore
SplineSet
52 1244 m 1
 12 1424 l 1
 465 1424 l 1
 465 -243 l 1
 47 -243 l 1
 47 -63 l 1
 226 -63 l 1
 226 1244 l 1
 52 1244 l 1
EndSplineSet
EndChar

StartChar: breve
Encoding: 370 728 114
Width: 629
VWidth: 0
Flags: HW
LayerCount: 2
Fore
SplineSet
292 1308 m 0
 354 1308 430 1332 439 1427 c 1
 604 1427 l 1
 590 1232 478 1142 292 1142 c 0
 106 1142 -6 1232 -20 1427 c 1
 145 1427 l 1
 154 1332 230 1308 292 1308 c 0
EndSplineSet
EndChar

StartChar: brokenbar
Encoding: 123 166 115
Width: 500
VWidth: 0
Flags: HW
LayerCount: 2
Fore
SplineSet
123 412 m 1
 350 412 l 1
 350 -460 l 1
 123 -460 l 1
 123 412 l 1
348 581 m 1
 121 581 l 1
 121 1512 l 1
 348 1512 l 1
 348 581 l 1
EndSplineSet
EndChar

StartChar: bullet
Encoding: 392 8226 116
Width: 989
VWidth: 0
Flags: HW
LayerCount: 2
Fore
SplineSet
838 690 m 0
 838 515 669 362 478 362 c 0
 275 362 121 511 121 683 c 0
 121 859 290 1010 479 1010 c 0
 677 1010 838 865 838 690 c 0
EndSplineSet
EndChar

StartChar: c
Encoding: 89 99 117
Width: 1086
VWidth: 0
Flags: HW
LayerCount: 2
Fore
SplineSet
924 273 m 1
 993 91 l 1
 884 14 763 -23 621 -23 c 0
 275 -23 100 219 100 506 c 0
 100 804 286 1052 616 1052 c 0
 772 1052 910 998 995 909 c 1
 891 751 l 1
 809 826 717 861 634 861 c 0
 454 861 345 704 345 507 c 0
 345 315 440 168 631 168 c 0
 724 168 819 204 924 273 c 1
EndSplineSet
EndChar

StartChar: caron
Encoding: 369 711 119
Width: 699
VWidth: 0
Flags: HW
LayerCount: 2
Fore
SplineSet
460 1464 m 1
 704 1464 l 1
 432 1096 l 1
 238 1096 l 1
 -36 1464 l 1
 198 1464 l 1
 329 1294 l 1
 373 1351 417 1407 460 1464 c 1
EndSplineSet
EndChar

StartChar: cedilla
Encoding: 141 184 122
Width: 529
VWidth: 0
Flags: HW
LayerCount: 2
Fore
SplineSet
9 -345 m 1
 23 -209 l 1
 102 -219 165 -227 202 -227 c 0
 248 -227 271 -198 271 -168 c 0
 271 -135 244 -100 105 -100 c 1
 136 81 l 1
 251 81 l 1
 233 -23 l 1
 403 -41 482 -115 482 -189 c 0
 482 -278 390 -369 220 -369 c 0
 163 -369 86 -357 9 -345 c 1
EndSplineSet
EndChar

StartChar: cent
Encoding: 119 162 123
Width: 1086
VWidth: 0
Flags: HW
LayerCount: 2
Fore
SplineSet
345 507 m 0
 345 343 414 212 553 177 c 1
 553 849 l 1
 422 810 345 672 345 507 c 0
924 273 m 1
 993 91 l 1
 906 29 812 -6 705 -18 c 1
 705 -236 l 1
 553 -236 l 1
 553 -19 l 1
 252 10 100 238 100 506 c 0
 100 784 262 1019 553 1049 c 1
 553 1250 l 1
 705 1250 l 1
 705 1046 l 1
 824 1029 926 980 995 909 c 1
 891 751 l 1
 832 805 767 838 705 853 c 1
 705 175 l 1
 775 189 846 222 924 273 c 1
EndSplineSet
EndChar

StartChar: circumflex
Encoding: 368 710 124
Width: 699
VWidth: 0
Flags: HW
LayerCount: 2
Fore
SplineSet
121 1096 m 1
 -90 1096 l 1
 168 1465 l 1
 363 1465 l 1
 626 1096 l 1
 407 1096 l 1
 264 1272 l 1
 198 1189 l 1
 121 1096 l 1
EndSplineSet
EndChar

StartChar: colon
Encoding: 48 58 125
Width: 540
VWidth: 0
Flags: HW
LayerCount: 2
Fore
SplineSet
402 251 m 1
 402 -11 l 1
 113 -11 l 1
 113 251 l 1
 402 251 l 1
401 1141 m 1
 402 879 l 1
 113 879 l 1
 113 1141 l 1
 401 1141 l 1
EndSplineSet
EndChar

StartChar: comma
Encoding: 34 44 126
Width: 540
VWidth: 0
Flags: HW
LayerCount: 2
Fore
SplineSet
30 -240 m 1
 141 259 l 1
 406 259 l 1
 229 -240 l 1
 30 -240 l 1
EndSplineSet
EndChar

StartChar: commaaccent
Encoding: 420 806 127
Width: 599
VWidth: 0
Flags: W
LayerCount: 2
Fore
SplineSet
61 -623 m 1
 171 -124 l 1
 436 -124 l 1
 260 -623 l 1
 61 -623 l 1
248.5 0 m 0
EndSplineSet
EndChar

StartChar: copyright
Encoding: 126 169 128
Width: 1829
VWidth: 0
Flags: HW
LayerCount: 2
Fore
SplineSet
885 -23 m 0
 431 -23 72 321 72 733 c 0
 72 1141 437 1483 877 1483 c 0
 1328 1483 1691 1136 1691 730 c 0
 1691 319 1328 -23 885 -23 c 0
883 96 m 0
 1258 96 1547 371 1547 728 c 0
 1547 1090 1257 1363 880 1363 c 0
 503 1363 215 1091 215 733 c 0
 215 372 505 96 883 96 c 0
443 722 m 0
 443 989 653 1157 900 1157 c 0
 996 1157 1098 1130 1196 1070 c 1
 1145 919 l 1
 1059 966 981 986 914 986 c 0
 751 986 651 868 651 722 c 0
 651 576 751 458 914 458 c 0
 981 458 1059 478 1145 525 c 1
 1196 374 l 1
 1098 314 996 287 900 287 c 0
 653 287 443 455 443 722 c 0
EndSplineSet
EndChar

StartChar: currency
Encoding: 121 164 129
Width: 1238
VWidth: 0
Flags: HW
LayerCount: 2
Fore
SplineSet
808 656 m 0
 808 814 728 949 553 949 c 0
 387 949 301 809 301 656 c 0
 301 500 387 365 557 365 c 0
 723 365 808 503 808 656 c 0
558 1051 m 0
 595 1051 632 1047 666 1039 c 1
 697 1122 735 1217 765 1299 c 1
 841 1271 l 1
 741 1010 l 1
 875 943 938 813 938 659 c 0
 938 529 889 407 789 337 c 1
 937 64 l 1
 868 32 l 1
 723 299 l 1
 673 279 615 266 552 266 c 0
 515 266 486 268 457 274 c 1
 364 32 l 1
 293 62 l 1
 383 299 l 1
 244 360 172 496 172 655 c 0
 172 800 231 929 345 996 c 1
 297 1086 245 1180 197 1269 c 1
 271 1299 l 1
 418 1029 l 1
 458 1045 505 1051 558 1051 c 0
EndSplineSet
EndChar

StartChar: d
Encoding: 90 100 130
Width: 1243
VWidth: 0
Flags: HW
HStem: -23 191<469.412 758.74> 0 21G<881.68 1113> 861 191<470.407 758.015> 1443 20G<870 1105>
VStem: 100 247<301.267 719.72> 877 228<0 125 302.731 729.001 932 1463>
LayerCount: 2
Back
SplineSet
624 168 m 4
 828 168 911 318 911 515 c 4
 911 717 822 861 624 861 c 4
 426 861 335 717 335 515 c 4
 335 317 420 168 624 168 c 4
593 1052 m 5
 721 1051 847 989 903 879 c 5
 903 1026 l 5
 1134 1026 l 5
 1134 0 l 5
 898 0 l 5
 898 155 l 5
 837 32 706 -23 593 -23 c 4
 254 -23 100 254 100 504 c 4
 100 781 255 1052 593 1052 c 5
EndSplineSet
Fore
SplineSet
613 168 m 0xbc
 803 168 877 328 877 515 c 0
 877 707 797 861 613 861 c 0
 429 861 347 707 347 515 c 0
 347 328 423 168 613 168 c 0xbc
870 922 m 5
 870 1463 l 1
 1105 1463 l 1
 1105 272 l 2
 1105 243 1106 215 1113 0 c 1
 882 0 l 1x7c
 880 125 l 1
 790.128712871 -6.69491525424 671.333333333 -23 567 -23 c 0
 305 -23 100 182 100 508 c 0
 100 802 263 1052 584 1052 c 0
 715 1052 815.699951172 994.583333333 870 922 c 5
EndSplineSet
EndChar

StartChar: dagger
Encoding: 390 8224 131
Width: 1022
VWidth: 0
Flags: HW
LayerCount: 2
Fore
SplineSet
374 106 m 1
 374 875 l 1
 72 875 l 1
 72 1064 l 1
 379 1064 l 1
 379 1424 l 1
 580 1424 l 1
 580 1064 l 1
 919 1064 l 1
 919 875 l 1
 552 875 l 1
 552 106 l 1
 374 106 l 1
EndSplineSet
EndChar

StartChar: daggerdbl
Encoding: 391 8225 132
Width: 1022
VWidth: 0
Flags: HW
LayerCount: 2
Fore
SplineSet
406 591 m 1
 406 920 l 1
 70 920 l 1
 70 1110 l 1
 390 1110 l 1
 372 1216 l 2
 361 1282 349 1362 341 1424 c 1
 577 1424 l 1
 577 1110 l 1
 917 1110 l 1
 917 920 l 1
 561 920 l 1
 561 591 l 1
 908 591 l 1
 908 408 l 1
 590 408 l 1
 600 346 l 2
 611 276 627 171 637 106 c 1
 386 106 l 1
 426 408 l 1
 66 408 l 1
 66 591 l 1
 406 591 l 1
EndSplineSet
EndChar

StartChar: degree
Encoding: 133 176 133
Width: 844
VWidth: 0
Flags: HW
LayerCount: 2
Fore
SplineSet
740 1108 m 0
 740 941 580 802 398 802 c 0
 214 802 52 948 52 1116 c 0
 52 1283 212 1417 396 1417 c 0
 579 1417 740 1279 740 1108 c 0
248 1116 m 0
 248 1045 318 985 397 985 c 0
 477 985 541 1040 541 1112 c 0
 541 1181 472 1234 397 1234 c 0
 318 1234 248 1187 248 1116 c 0
EndSplineSet
EndChar

StartChar: dieresis
Encoding: 125 168 134
Width: 743
VWidth: 0
Flags: HW
LayerCount: 2
Fore
SplineSet
711 1334 m 1
 711 1114 l 1
 476 1114 l 1
 476 1334 l 1
 711 1334 l 1
265 1334 m 1
 265 1114 l 1
 29 1114 l 1
 29 1334 l 1
 265 1334 l 1
EndSplineSet
EndChar

StartChar: divide
Encoding: 204 247 135
Width: 1458
VWidth: 0
Flags: HW
LayerCount: 2
Fore
SplineSet
842 1107 m 1
 842 845 l 1
 555 845 l 1
 555 1107 l 1
 842 1107 l 1
845 250 m 1
 846 -13 l 1
 558 -13 l 1
 558 250 l 1
 845 250 l 1
1229 454 m 1
 166 454 l 1
 166 651 l 1
 1229 651 l 1
 1229 454 l 1
EndSplineSet
EndChar

StartChar: dollar
Encoding: 26 36 136
Width: 1230
VWidth: 0
Flags: HW
LayerCount: 2
Fore
SplineSet
881 383 m 0
 881 473 784 538 669 592 c 1
 669 191 l 1
 796 211 881 277 881 383 c 0
363 1088 m 0
 363 989 462 926 584 872 c 1
 584 1271 l 1
 471 1256 363 1202 363 1088 c 0
103 166 m 1
 224 331 l 1
 278 255 449 184 577 184 c 2
 584 184 l 1
 584 629 l 1
 353 722 105 831 105 1080 c 0
 105 1322 336 1461 584 1480 c 1
 584 1627 l 1
 669 1627 l 1
 669 1483 l 1
 838 1479 1034 1435 1102 1296 c 1
 968 1141 l 1
 897 1241 775 1271 669 1275 c 1
 669 835 l 1
 887 746 1138 630 1138 379 c 0
 1138 120 910 7 669 -17 c 1
 669 -215 l 1
 584 -215 l 1
 584 -23 l 1
 561 -23 l 2
 344 -23 167 64 103 166 c 1
EndSplineSet
EndChar

StartChar: dotaccent
Encoding: 371 729 137
Width: 524
VWidth: 0
Flags: HW
LayerCount: 2
Fore
SplineSet
373 1167 m 1
 139 1167 l 1
 139 1386 l 1
 373 1386 l 1
 373 1167 l 1
EndSplineSet
EndChar

StartChar: uni0307
Encoding: 376 775 138
Width: 524
VWidth: 0
Flags: HW
LayerCount: 2
Fore
SplineSet
373 1167 m 1
 139 1167 l 1
 139 1386 l 1
 373 1386 l 1
 373 1167 l 1
EndSplineSet
EndChar

StartChar: dotlessi
Encoding: 260 305 139
Width: 503
VWidth: 0
Flags: HW
LayerCount: 2
Fore
SplineSet
360 1026 m 1
 360 0 l 1
 123 0 l 1
 123 1026 l 1
 360 1026 l 1
EndSplineSet
EndChar

StartChar: uni0237
Encoding: 367 567 140
Width: 503
VWidth: 0
Flags: HW
LayerCount: 2
Fore
SplineSet
-134 -383 m 1
 -134 -183 l 1
 -68 -198 -36 -202 -17 -202 c 0
 69 -202 128 -119 128 62 c 2
 128 1026 l 1
 363 1026 l 1
 363 96 l 2
 363 -129 323 -402 25 -402 c 0
 -17 -402 -68 -396 -134 -383 c 1
EndSplineSet
EndChar

StartChar: e
Encoding: 91 101 141
Width: 1184
VWidth: 0
Flags: HW
LayerCount: 2
Fore
SplineSet
352 636 m 1
 881 636 l 1
 860 792 753 869 627 869 c 0
 479 869 383 771 352 636 c 1
998 292 m 1
 1066 107 l 1
 944 19 811 -23 652 -23 c 0
 306 -23 100 197 100 512 c 0
 100 803 288 1052 615 1052 c 0
 941 1052 1087 818 1087 523 c 0
 1087 512 1086 494 1082 478 c 1
 348 478 l 1
 356 265 476 168 659 168 c 0
 772 168 889 210 998 292 c 1
EndSplineSet
EndChar

StartChar: eight
Encoding: 46 56 146
Width: 1201
VWidth: 0
Flags: HW
LayerCount: 2
Fore
SplineSet
378 1049 m 0
 378 938 463 865 602 832 c 1
 739 868 825 940 825 1058 c 0
 825 1167 723 1235 601 1235 c 0
 472 1235 378 1171 378 1049 c 0
352 386 m 0
 352 250 450 176 603 176 c 0
 754 176 857 242 857 389 c 0
 857 506 746 597 608 630 c 1
 460 599 352 518 352 386 c 0
100 376 m 0
 100 536 182 664 345 734 c 1
 209 802 133 907 133 1058 c 0
 133 1291 324 1426 592 1426 c 0
 868 1426 1069 1285 1069 1050 c 0
 1069 897 998 792 861 731 c 1
 1008 666 1101 525 1101 369 c 0
 1101 116 863 -23 617 -23 c 0
 350 -23 100 121 100 376 c 0
EndSplineSet
EndChar

StartChar: ellipsis
Encoding: 393 8230 147
Width: 1620
VWidth: 0
Flags: HW
LayerCount: 2
Fore
SplineSet
1456 251 m 1
 1456 -11 l 1
 1169 -11 l 1
 1169 251 l 1
 1456 251 l 1
934 251 m 1
 935 -11 l 1
 645 -11 l 1
 645 251 l 1
 934 251 l 1
410 251 m 1
 411 -11 l 1
 121 -11 l 1
 121 251 l 1
 410 251 l 1
EndSplineSet
EndChar

StartChar: emdash
Encoding: 383 8212 149
Width: 2171
VWidth: 0
Flags: HW
LayerCount: 2
Fore
SplineSet
2099 653 m 1
 2099 458 l 1
 -12 458 l 1
 -12 653 l 1
 2099 653 l 1
EndSplineSet
EndChar

StartChar: endash
Encoding: 382 8211 150
Width: 1085
VWidth: 0
Flags: HW
LayerCount: 2
Fore
SplineSet
1073 653 m 1
 1073 458 l 1
 -30 458 l 1
 -30 653 l 1
 1073 653 l 1
EndSplineSet
EndChar

StartChar: equal
Encoding: 51 61 152
Width: 1458
VWidth: 0
Flags: HW
LayerCount: 2
Fore
SplineSet
166 838 m 1
 1231 838 l 1
 1231 646 l 1
 166 646 l 1
 166 838 l 1
166 458 m 1
 1233 458 l 1
 1233 267 l 1
 166 267 l 1
 166 458 l 1
EndSplineSet
EndChar

StartChar: eth
Encoding: 197 240 153
Width: 1218
VWidth: 0
Flags: HW
LayerCount: 2
Fore
SplineSet
851 450 m 0
 851 611 716 706 588 706 c 0
 462 706 343 628 343 451 c 0
 343 260 471 168 601 168 c 0
 725 168 851 265 851 450 c 0
1103 1182 m 1
 922 1148 l 1
 1041 1001 1102 760 1102 623 c 0
 1102 170 909 -24 585 -24 c 0
 286 -24 100 204 100 468 c 0
 100 731 269 904 547 904 c 0
 670 904 789 859 883 749 c 1
 883 821 798 1032 710 1102 c 1
 438 1044 l 1
 410 1177 l 1
 596 1216 l 1
 536 1262 429 1305 347 1321 c 1
 425 1456 l 1
 574 1438 710 1375 829 1265 c 1
 1075 1315 l 1
 1103 1182 l 1
EndSplineSet
EndChar

StartChar: exclam
Encoding: 23 33 154
Width: 737
VWidth: 0
Flags: HW
LayerCount: 2
Fore
SplineSet
496 262 m 1
 496 0 l 1
 217 0 l 1
 217 262 l 1
 496 262 l 1
497 1424 m 1
 427 353 l 1
 287 353 l 1
 217 1424 l 1
 497 1424 l 1
EndSplineSet
EndChar

StartChar: exclamdown
Encoding: 118 161 155
Width: 737
VWidth: 0
Flags: HW
LayerCount: 2
Fore
SplineSet
496 1162 m 1
 217 1162 l 1
 217 1424 l 1
 496 1424 l 1
 496 1162 l 1
497 0 m 1
 217 0 l 1
 287 1071 l 1
 427 1071 l 1
 497 0 l 1
EndSplineSet
EndChar

StartChar: f
Encoding: 92 102 156
Width: 812
VWidth: 0
Flags: HW
LayerCount: 2
Fore
SplineSet
496 868 m 1
 496 0 l 1
 261 0 l 1
 261 868 l 1
 72 868 l 1
 72 1026 l 1
 261 1026 l 1
 261 1073 l 2
 261 1359 336 1484 686 1484 c 2
 738 1484 l 1
 738 1301 l 1
 730 1301 l 2
 531 1301 496 1298 496 1026 c 1
 730 1026 l 1
 730 868 l 1
 496 868 l 1
EndSplineSet
EndChar

StartChar: uniFB01
Encoding: 413 64257 157
Width: 1198
VWidth: 0
Flags: HW
LayerCount: 2
Fore
SplineSet
821 1483 m 1
 1043 1483 l 1
 1043 1274 l 1
 821 1274 l 1
 821 1483 l 1
496 868 m 1
 496 0 l 1
 261 0 l 1
 261 868 l 1
 72 868 l 1
 72 1026 l 1
 261 1026 l 1
 261 1073 l 2
 261 1359 336 1484 686 1484 c 2
 738 1484 l 1
 738 1301 l 1
 730 1301 l 2
 531 1301 496 1298 496 1026 c 1
 1043 1026 l 1
 1043 0 l 1
 808 0 l 1
 808 868 l 1
 496 868 l 1
EndSplineSet
EndChar

StartChar: five
Encoding: 43 53 158
Width: 1208
VWidth: 0
Flags: HW
LayerCount: 2
Fore
SplineSet
111 163 m 1
 236 337 l 1
 332 227 455 175 564 175 c 0
 714 175 839 273 839 455 c 0
 839 591 764 713 632 713 c 0
 561 713 489 695 453 645 c 1
 214 672 l 1
 214 1398 l 1
 1018 1398 l 1
 1018 1199 l 1
 429 1199 l 1
 417 828 l 1
 475 898 574 919 676 919 c 0
 904 919 1088 719 1088 452 c 0
 1088 141 838 -22 569 -22 c 0
 406 -22 236 38 111 163 c 1
EndSplineSet
EndChar

StartChar: uniFB02
Encoding: 414 64258 159
Width: 1217
VWidth: 0
Flags: HW
LayerCount: 2
Fore
SplineSet
496 868 m 1
 496 0 l 1
 261 0 l 1
 261 868 l 1
 72 868 l 1
 72 1026 l 1
 261 1026 l 1
 261 1073 l 2
 261 1358 336 1485 686 1484 c 2
 1062 1483 l 1
 1062 0 l 1
 828 0 l 1
 828 1301 l 1
 730 1301 l 2
 531 1301 496 1298 496 1026 c 1
 730 1026 l 1
 730 868 l 1
 496 868 l 1
EndSplineSet
EndChar

StartChar: florin
Encoding: 328 402 160
Width: 1634
VWidth: 0
Flags: HW
LayerCount: 2
Fore
SplineSet
511 32 m 1
 575 289 577 318 579 364 c 0
 581 410 584 465 623 674 c 1
 520 674 l 1
 520 871 l 1
 651 871 l 1
 655 910 658 954 662 993 c 1
 666 1138 716 1338 981 1338 c 0
 1009 1338 1094 1330 1164 1315 c 1
 1168 1094 l 1
 1089 1126 1038 1135 1025 1135 c 0
 965 1135 939 1112 935 1075 c 1
 903 871 l 1
 1043 871 l 1
 1043 674 l 1
 870 674 l 1
 851 542 l 2
 836 442 821 334 805 235 c 1
 798 187 l 1
 760 -55 718 -312 442 -312 c 0
 436 -312 383 -309 332 -294 c 1
 336 -87 l 1
 385 -104 416 -115 423 -117 c 1
 453 -110 493 -24 511 32 c 1
EndSplineSet
EndChar

StartChar: four
Encoding: 42 52 161
Width: 1189
VWidth: 0
Flags: HW
LayerCount: 2
Fore
SplineSet
289 516 m 1
 682 516 l 1
 682 1062 l 1
 551 880 420 698 289 516 c 1
927 0 m 1
 679 0 l 1
 679 330 l 1
 35 330 l 1
 35 484 l 1
 662 1393 l 1
 923 1393 l 1
 923 516 l 1
 1124 516 l 1
 1124 330 l 1
 927 330 l 1
 927 0 l 1
EndSplineSet
EndChar

StartChar: uni2074
Encoding: 398 8308 162
Width: 897
VWidth: 0
Flags: HW
LayerCount: 2
Fore
SplineSet
158 898 m 1
 303 898 l 1
 303 1127 l 1
 276 1082 227 1006 158 898 c 1
493 575 m 1
 305 575 l 1
 305 750 l 1
 -49 750 l 1
 -49 878 l 1
 310 1385 l 1
 494 1385 l 1
 494 898 l 1
 609 898 l 1
 609 750 l 1
 493 750 l 1
 493 575 l 1
EndSplineSet
EndChar

StartChar: fraction
Encoding: 397 8260 163
Width: 368
VWidth: 0
Flags: HW
LayerCount: 2
Fore
SplineSet
510 1409 m 1
 744 1409 l 1
 -143 0 l 1
 -378 0 l 1
 510 1409 l 1
EndSplineSet
EndChar

StartChar: g
Encoding: 93 103 164
Width: 1244
VWidth: 0
Flags: HW
LayerCount: 2
Fore
SplineSet
884 520 m 0
 884 714 791 861 614 861 c 0
 431 861 347 700 347 514 c 0
 347 312 414 179 611 179 c 0
 815 179 884 350 884 520 c 0
592 1052 m 0
 711 1052 833 971.581395349 874 870 c 5
 874 1026 l 1
 1123 1026 l 1
 1123 1026 1105 872 1105 695 c 2
 1105 168 l 2
 1105 -91 1018 -395 576 -395 c 0
 440 -395 307 -366 182 -302 c 1
 214 -82 l 1
 338 -163 463 -201 561 -201 c 0
 752 -201 873 -118 873 66 c 2
 873 106 l 1
 803 45 683 0 584 0 c 0
 280 0 100 205 100 513 c 0
 100 801 263 1052 592 1052 c 0
EndSplineSet
EndChar

StartChar: germandbls
Encoding: 180 223 166
Width: 1307
VWidth: 0
Flags: HW
LayerCount: 2
Fore
SplineSet
424 1005 m 0
 424 519 432 479 432 0 c 1
 195 0 l 1
 192 1035 l 1
 195 1300 357 1483 636 1483 c 0
 892 1483 1058 1341 1058 1165 c 0
 1058 1011 916 871 734 819 c 1
 963 766 1212 614 1212 352 c 0
 1212 121 1017 -23 814 -23 c 0
 696 -23 563 34 463 160 c 1
 564 327 l 1
 659 217 747 168 808 168 c 0
 887 168 952 228 952 334 c 0
 952 494 771 609 564 727 c 1
 578 887 l 1
 695 937 798 1036 798 1149 c 0
 798 1240 731 1295 637 1295 c 0
 499 1295 424 1143 424 1005 c 0
EndSplineSet
EndChar

StartChar: grave
Encoding: 86 96 167
Width: 607
VWidth: 0
Flags: HW
LayerCount: 2
Fore
SplineSet
300 1463 m 1
 559 1148 l 1
 345 1148 l 1
 -3 1463 l 1
 300 1463 l 1
EndSplineSet
EndChar

StartChar: greater
Encoding: 52 62 168
Width: 1458
VWidth: 0
Flags: HW
LayerCount: 2
Fore
SplineSet
181 251 m 1
 877 557 l 1
 737 625 599 689 456 756 c 2
 186 883 l 1
 186 1099 l 1
 1214 605 l 1
 1214 486 l 1
 181 30 l 1
 181 251 l 1
EndSplineSet
EndChar

StartChar: greaterequal
Encoding: 411 8805 169
Width: 1351
VWidth: 0
Flags: HW
LayerCount: 2
Fore
SplineSet
163 9 m 1
 163 185 l 1
 1160 185 l 1
 1143 9 l 1
 163 9 l 1
176 255 m 1
 193 464 l 1
 899 697 l 1
 182 967 l 1
 199 1168 l 1
 1164 747 l 1
 1164 639 l 1
 176 255 l 1
EndSplineSet
EndChar

StartChar: guillemotleft
Encoding: 128 171 170
Width: 1156
VWidth: 0
Flags: HW
LayerCount: 2
Fore
SplineSet
105 541 m 1
 387 921 l 1
 634 921 l 1
 359 540 l 1
 623 160 l 1
 381 160 l 1
 105 541 l 1
525 541 m 1
 807 921 l 1
 1050 921 l 1
 780 540 l 1
 1042 160 l 1
 801 160 l 1
 525 541 l 1
EndSplineSet
EndChar

StartChar: guillemotright
Encoding: 144 187 171
Width: 1156
VWidth: 0
Flags: HW
LayerCount: 2
Fore
SplineSet
657 542 m 1
 375 160 l 1
 129 160 l 1
 400 542 l 1
 137 921 l 1
 379 921 l 1
 657 542 l 1
1026 542 m 1
 744 160 l 1
 504 160 l 1
 770 544 l 1
 513 921 l 1
 749 921 l 1
 1026 542 l 1
EndSplineSet
EndChar

StartChar: guilsinglleft
Encoding: 395 8249 172
Width: 642
VWidth: 0
Flags: HW
LayerCount: 2
Fore
SplineSet
59 541 m 1
 339 921 l 1
 583 921 l 1
 314 540 l 1
 576 160 l 1
 335 160 l 1
 59 541 l 1
EndSplineSet
EndChar

StartChar: guilsinglright
Encoding: 396 8250 173
Width: 642
VWidth: 0
Flags: HW
LayerCount: 2
Fore
SplineSet
582 542 m 1
 299 160 l 1
 59 160 l 1
 326 544 l 1
 70 921 l 1
 304 921 l 1
 582 542 l 1
EndSplineSet
EndChar

StartChar: h
Encoding: 94 104 174
Width: 1157
VWidth: 0
Flags: HW
LayerCount: 2
Fore
SplineSet
128 1463 m 1
 364 1463 l 1
 364 868 l 5
 419 982.43902439 549 1052 660 1052 c 0
 988 1052 1039 777 1039 580 c 2
 1039 0 l 1
 802 0 l 1
 802 586 l 2
 802 785 753 861 629 861 c 0
 489 861 364 748 364 619 c 2
 364 0 l 1
 128 0 l 1
 128 1463 l 1
EndSplineSet
EndChar

StartChar: hungarumlaut
Encoding: 375 733 176
Width: 969
VWidth: 0
Flags: HW
LayerCount: 2
Fore
SplineSet
298 1105 m 1
 128 1105 l 1
 328 1463 l 1
 596 1463 l 1
 298 1105 l 1
622 1105 m 1
 445 1105 l 1
 682 1463 l 1
 966 1463 l 1
 622 1105 l 1
EndSplineSet
EndChar

StartChar: hyphen
Encoding: 35 45 177
Width: 728
VWidth: 0
Flags: HW
LayerCount: 2
Fore
SplineSet
661 458 m 1
 44 458 l 1
 44 653 l 1
 661 653 l 1
 661 458 l 1
EndSplineSet
EndChar

StartChar: i
Encoding: 95 105 178
Width: 543
VWidth: 0
Flags: HW
LayerCount: 2
Fore
SplineSet
159 0 m 1
 159 1026 l 1
 388 1026 l 1
 388 0 l 1
 159 0 l 1
159 1435 m 1
 388 1435 l 1
 388 1226 l 1
 159 1226 l 1
 159 1435 l 1
EndSplineSet
EndChar

StartChar: integral
Encoding: 407 8747 185
Width: 702
VWidth: 0
Flags: HW
LayerCount: 2
Fore
SplineSet
477 -49 m 2
 476 1316 l 2
 476 1536 567 1699 796 1699 c 0
 838 1699 869 1693 906 1686 c 2
 965 1674 l 1
 969 1478 l 1
 910 1505 853 1509 826 1509 c 0
 730 1509 714 1449 714 1337 c 2
 715 -29 l 2
 715 -249 628 -411 397 -411 c 0
 345 -411 295 -400 230 -385 c 1
 225 -194 l 1
 279 -217 340 -222 369 -222 c 0
 461 -222 477 -161 477 -49 c 2
EndSplineSet
EndChar

StartChar: j
Encoding: 96 106 188
Width: 563
VWidth: 0
Flags: HW
LayerCount: 2
Fore
SplineSet
173 1435 m 1
 408 1435 l 1
 408 1226 l 1
 173 1226 l 1
 173 1435 l 1
-89 -383 m 1
 -89 -183 l 1
 -23 -198 9 -202 28 -202 c 0
 114 -202 173 -119 173 62 c 2
 173 1026 l 1
 408 1026 l 1
 408 96 l 2
 408 -129 368 -402 70 -402 c 0
 28 -402 -23 -396 -89 -383 c 1
EndSplineSet
EndChar

StartChar: k
Encoding: 97 107 190
Width: 1095
VWidth: 0
Flags: HW
LayerCount: 2
Fore
SplineSet
1059 1026 m 1
 543 539 l 1
 1092 0 l 1
 779 0 l 1
 365 424 l 1
 365 0 l 1
 130 0 l 1
 130 1463 l 1
 365 1463 l 1
 365 646 l 1
 734 1026 l 1
 1059 1026 l 1
EndSplineSet
EndChar

StartChar: kgreenlandic
Encoding: 267 312 192
Width: 1082
VWidth: 0
Flags: HW
LayerCount: 2
Fore
SplineSet
1077 1026 m 1
 563 509 l 1
 687 395 740 346 781 307 c 0
 794 294 804 285 816 274 c 0
 862 229 938 158 1112 0 c 1
 799 0 l 1
 385 399 l 1
 385 0 l 1
 150 0 l 1
 150 1026 l 1
 385 1026 l 1
 385 618 l 1
 756 1026 l 1
 1077 1026 l 1
EndSplineSet
EndChar

StartChar: l
Encoding: 98 108 193
Width: 538
VWidth: 0
Flags: HW
LayerCount: 2
Fore
SplineSet
149 1463 m 1
 383 1463 l 1
 383 0 l 1
 149 0 l 1
 149 1463 l 1
EndSplineSet
EndChar

StartChar: less
Encoding: 50 60 195
Width: 1458
VWidth: 0
Flags: HW
LayerCount: 2
Fore
SplineSet
1215 871 m 1
 510 550 l 1
 849 398 l 1
 959 350 1102 284 1211 236 c 1
 1211 23 l 1
 184 495 l 1
 184 606 l 1
 1215 1088 l 1
 1215 871 l 1
EndSplineSet
EndChar

StartChar: lessequal
Encoding: 410 8804 196
Width: 1351
VWidth: 0
Flags: HW
LayerCount: 2
Fore
SplineSet
1134 464 m 1
 1151 255 l 1
 163 639 l 1
 163 747 l 1
 1128 1168 l 1
 1145 967 l 1
 428 697 l 1
 1134 464 l 1
1164 185 m 1
 1164 9 l 1
 184 9 l 1
 167 185 l 1
 1164 185 l 1
EndSplineSet
EndChar

StartChar: logicalnot
Encoding: 129 172 197
Width: 1458
VWidth: 0
Flags: HW
LayerCount: 2
Fore
SplineSet
1232 223 m 1
 1011 223 l 1
 1011 616 l 1
 169 616 l 1
 169 812 l 1
 1232 812 l 1
 1232 223 l 1
EndSplineSet
EndChar

StartChar: lozenge
Encoding: 412 9674 198
Width: 1248
VWidth: 0
Flags: HW
LayerCount: 2
Fore
SplineSet
603 1179 m 1
 308 700 l 1
 596 208 l 1
 891 700 l 1
 603 1179 l 1
679 1442 m 1
 1123 701 l 1
 672 -40 l 1
 518 -40 l 1
 77 700 l 1
 524 1442 l 1
 679 1442 l 1
EndSplineSet
EndChar

StartChar: lslash
Encoding: 277 322 199
Width: 503
VWidth: 0
Flags: HW
LayerCount: 2
Fore
SplineSet
124 1463 m 1
 361 1463 l 1
 361 1100 l 1
 473 1197 l 1
 473 987 l 1
 362 887 l 1
 362 0 l 1
 125 0 l 1
 125 721 l 1
 6 621 l 1
 6 828 l 1
 124 928 l 1
 124 1463 l 1
EndSplineSet
EndChar

StartChar: m
Encoding: 99 109 200
Width: 1808
VWidth: 0
Flags: HW
LayerCount: 2
Fore
SplineSet
126 1026 m 1
 374 1026 l 1
 374 840 l 5
 424 959.558139535 546 1052 673 1052 c 0
 802 1052 901 984 964 861 c 1
 1045 963 1161 1052 1317 1052 c 0
 1569 1052 1688 885 1688 629 c 2
 1688 0 l 1
 1452 0 l 1
 1452 553 l 2
 1452 669 1450 861 1285 861 c 0
 1128 861 1035 719 1035 582 c 2
 1035 0 l 1
 799 0 l 1
 799 628 l 2
 799 729 776 861 639 861 c 0
 500 861 379 745 379 620 c 2
 379 0 l 1
 143 0 l 1
 143 705 l 2
 143 868 129 954 126 1026 c 1
EndSplineSet
EndChar

StartChar: macron
Encoding: -1 175 201
Width: 728
VWidth: 0
Flags: W
LayerCount: 2
Fore
SplineSet
661 1196 m 1
 44 1196 l 1
 44 1367 l 1
 661 1367 l 1
 661 1196 l 1
352.5 1026 m 0
EndSplineSet
EndChar

StartChar: middot
Encoding: -1 183 202
Width: 444
VWidth: 0
Flags: W
LayerCount: 2
Fore
SplineSet
358 809 m 1
 358 547 l 1
 79 547 l 1
 79 809 l 1
 358 809 l 1
EndSplineSet
EndChar

StartChar: minus
Encoding: 65537 8722 203
Width: 1458
VWidth: 0
Flags: HW
LayerCount: 2
Fore
SplineSet
1230 507 m 1
 1230 315 l 1
 165 315 l 1
 165 507 l 1
 1230 507 l 1
EndSplineSet
EndChar

StartChar: mu
Encoding: 65538 956 204
Width: 1217
VWidth: 0
Flags: HW
LayerCount: 2
Fore
SplineSet
799 452 m 2
 799 1026 l 1
 1036 1026 l 1
 1037 262 l 2
 1037 166 1041 92 1051 0 c 1
 806 0 l 1
 802 52 l 1
 726 6 632 -23 527 -23 c 0
 467 -23 412 -16 367 -6 c 1
 367 -39 368 -75 368 -109 c 2
 368 -227 l 1
 128 -227 l 1
 128 1026 l 1
 359 1026 l 1
 363 444 l 1
 363 267 416 167 560 167 c 0
 712 167 799 304 799 452 c 2
EndSplineSet
EndChar

StartChar: uni00B5
Encoding: 138 181 205
Width: 1182
VWidth: 0
Flags: HW
LayerCount: 2
Fore
SplineSet
883 0 m 1
 874 5 l 1
 861 32 849 76 843 132 c 1
 784 29 696 -23 569 -23 c 0
 470 -23 395 14 344 76 c 1
 332 -395 l 1
 163 -395 l 1
 163 1026 l 1
 334 1026 l 1
 333 399 l 2
 333 398 332 397 332 396 c 2
 332 392 l 2
 332 228 434 128 577 128 c 0
 735 128 843 249 843 438 c 2
 843 1026 l 1
 1014 1026 l 1
 1014 267 l 2
 1014 156 1021 67 1050 0 c 1
 883 0 l 1
EndSplineSet
EndChar

StartChar: multiply
Encoding: 172 215 206
Width: 1458
VWidth: 0
Flags: HW
LayerCount: 2
Fore
SplineSet
704 710 m 1
 972 1003 l 1
 1117 854 l 1
 842 552 l 1
 921 455 1006 349 1084 251 c 1
 921 96 l 1
 693 392 l 1
 681 379 665 360 653 349 c 1
 580 270 495 177 423 98 c 1
 277 249 l 1
 553 552 l 1
 318 856 l 1
 474 1005 l 1
 704 710 l 1
EndSplineSet
EndChar

StartChar: n
Encoding: 100 110 207
Width: 1171
VWidth: 0
Flags: HW
LayerCount: 2
Fore
SplineSet
382 620 m 2
 382 0 l 1
 146 0 l 1
 146 656 l 2
 146 883 128 1026 128 1026 c 1
 377 1026 l 1
 377 839 l 5
 438 981.820809249 574 1052 681 1052 c 0
 918 1052 1053 888 1053 570 c 2
 1053 0 l 1
 817 0 l 1
 817 559 l 2
 817 777 778 861 636 861 c 0
 529 861 382 764 382 620 c 2
EndSplineSet
EndChar

StartChar: nine
Encoding: 47 57 210
Width: 1210
VWidth: 0
Flags: HW
LayerCount: 2
Fore
SplineSet
575 694 m 0
 732 694 848 788 848 973 c 0
 848 1108 755 1231 591 1231 c 0
 430 1231 328 1117 328 959 c 0
 328 809 407 694 575 694 c 0
152 118 m 1
 240 298 l 1
 331 222 429 185 523 185 c 0
 717 185 828 367 854 629 c 1
 784 525 666 500 550 500 c 0
 262 500 80 686 80 955 c 0
 80 1222 273 1426 583 1426 c 0
 913 1426 1104 1181 1104 741 c 0
 1104 289 895 -23 523 -23 c 0
 378 -23 246 28 152 118 c 1
EndSplineSet
EndChar

StartChar: notequal
Encoding: 409 8800 211
Width: 1351
VWidth: 0
Flags: HW
LayerCount: 2
Fore
SplineSet
484 482 m 1
 588 681 l 1
 143 681 l 1
 105 860 l 1
 674 860 l 1
 802 1122 l 1
 1004 1094 l 1
 888 860 l 1
 1158 860 l 1
 1194 681 l 1
 803 681 l 1
 696 482 l 1
 1158 482 l 1
 1194 304 l 1
 608 304 l 1
 476 37 l 1
 280 66 l 1
 393 304 l 1
 141 304 l 1
 105 482 l 1
 484 482 l 1
EndSplineSet
EndChar

StartChar: numbersign
Encoding: 25 35 213
Width: 1242
VWidth: 0
Flags: HW
LayerCount: 2
Fore
SplineSet
658 638 m 1
 694 832 l 1
 536 832 l 1
 499 638 l 1
 658 638 l 1
30 638 m 1
 278 638 l 1
 316 832 l 1
 73 832 l 1
 93 1010 l 1
 344 1010 l 1
 419 1393 l 1
 644 1393 l 1
 572 1010 l 1
 730 1010 l 1
 798 1393 l 1
 1026 1393 l 1
 952 1010 l 1
 1172 1010 l 1
 1152 832 l 1
 916 832 l 1
 880 638 l 1
 1112 638 l 1
 1096 454 l 1
 851 454 l 1
 773 55 l 1
 551 55 l 1
 624 454 l 1
 466 454 l 1
 392 55 l 1
 165 55 l 1
 245 454 l 1
 12 454 l 1
 30 638 l 1
EndSplineSet
EndChar

StartChar: o
Encoding: 101 111 214
Width: 1268
VWidth: 0
Flags: HW
LayerCount: 2
Fore
SplineSet
635 168 m 0
 839 168 922 328 922 515 c 0
 922 707 833 861 635 861 c 0
 437 861 346 707 346 515 c 0
 346 328 431 168 635 168 c 0
638 1052 m 0
 990 1052 1168 807 1168 511 c 0
 1168 225 978 -23 638 -23 c 0
 291 -23 100 222 100 513 c 0
 100 805 293 1052 638 1052 c 0
EndSplineSet
EndChar

StartChar: oe
Encoding: 291 339 218
Width: 1998
VWidth: 0
Flags: HW
LayerCount: 2
Fore
SplineSet
900 511 m 0
 900 709 823 861 632 861 c 0
 446 861 346 696 346 508 c 0
 346 322 437 167 639 167 c 0
 820 167 900 328 900 511 c 0
1146 636 m 1
 1595 636 l 1
 1606 636 l 1
 1606 638 l 1
 1589 769 1520 861 1394 861 c 0
 1261 861 1172 753 1146 636 c 1
1859 441 m 1
 1144 436 l 1
 1160 273 1247 167 1387 167 c 0
 1502 167 1610 243 1686 367 c 1
 1825 231 l 1
 1733 53 1563 -32 1382 -32 c 0
 1220 -32 1089 30 1015 136 c 1
 948 26 790 -32 631 -32 c 0
 299 -32 100 215 100 511 c 0
 100 804 296 1055 638 1055 c 0
 822 1055 942 989 1015 881 c 1
 1094 1002 1193 1055 1382 1055 c 0
 1676 1055 1859 834 1859 504 c 2
 1859 441 l 1
EndSplineSet
EndChar

StartChar: ogonek
Encoding: 373 731 219
Width: 508
VWidth: 0
Flags: HW
LayerCount: 2
Fore
SplineSet
384 0 m 1
 290 -55 229 -140 229 -195 c 0
 229 -237 263 -250 306 -250 c 0
 366 -250 444 -224 472 -216 c 1
 472 -355 l 1
 389 -380 305 -394 233 -394 c 0
 107 -394 15 -352 15 -255 c 0
 15 -114 176 -40 255 0 c 1
 384 0 l 1
EndSplineSet
EndChar

StartChar: one
Encoding: 39 49 221
Width: 1015
VWidth: 0
Flags: HW
LayerCount: 2
Fore
SplineSet
181 1023 m 1
 180 1242 l 1
 286 1282 384 1334 473 1384 c 1
 692 1422 l 1
 692 189 l 1
 893 189 l 1
 893 0 l 1
 239 0 l 1
 239 192 l 1
 442 192 l 1
 442 1136 l 1
 371 1101 293 1067 181 1023 c 1
EndSplineSet
EndChar

StartChar: uni00B9
Encoding: 142 185 224
Width: 1190
VWidth: 0
Flags: HW
LayerCount: 2
Fore
SplineSet
200 1107 m 1
 200 1306 l 1
 288 1335 340 1362 381 1385 c 1
 530 1406 l 1
 530 740 l 1
 645 740 l 1
 645 564 l 1
 230 564 l 1
 230 742 l 1
 343 742 l 1
 343 1162 l 1
 305 1145 243 1122 200 1107 c 1
EndSplineSet
EndChar

StartChar: ordfeminine
Encoding: 127 170 225
Width: 745
VWidth: 0
Flags: HW
LayerCount: 2
Fore
SplineSet
297 838 m 0
 377 838 483 928 489 1031 c 1
 375 1024 221 1014 221 907 c 0
 221 865 237 838 297 838 c 0
147 1244 m 1
 83 1386 l 1
 157 1430 262 1448 380 1448 c 0
 538 1448 675 1388 675 1178 c 0
 675 818 681 793 686 747 c 1
 516 747 l 1
 501 892 l 1
 455 769 382 716 258 716 c 0
 134 716 29 772 29 909 c 0
 29 1061 176 1142 490 1149 c 1
 490 1156 491 1163 491 1169 c 0
 491 1263 436 1295 361 1295 c 0
 297 1295 217 1271 147 1244 c 1
EndSplineSet
EndChar

StartChar: ordmasculine
Encoding: 143 186 226
Width: 824
VWidth: 0
Flags: HW
LayerCount: 2
Fore
SplineSet
235 1084 m 0
 235 973 288 884 400 884 c 0
 507 884 564 976 564 1081 c 0
 564 1194 507 1283 401 1283 c 0
 296 1283 235 1191 235 1084 c 0
400 1447 m 0
 643 1447 779 1284 779 1082 c 0
 779 884 645 720 403 720 c 0
 150 720 19 878 19 1086 c 0
 19 1288 159 1447 400 1447 c 0
EndSplineSet
EndChar

StartChar: oslash
Encoding: 205 248 227
Width: 1268
VWidth: 0
Flags: HW
LayerCount: 2
Fore
SplineSet
635 168 m 0
 839 168 922 328 922 515 c 0
 922 625 892 723 830 786 c 1
 548 179 l 1
 574 172 603 168 635 168 c 0
346 515 m 0
 346 406 375 306 439 242 c 1
 721 849 l 1
 695 857 666 861 635 861 c 0
 437 861 346 707 346 515 c 0
638 1052 m 0
 699 1052 755 1044 805 1031 c 1
 901 1236 l 1
 1012 1179 l 1
 921 983 l 1
 1085 890 1168 712 1168 511 c 0
 1168 225 978 -23 638 -23 c 0
 575 -23 517 -15 465 0 c 1
 377 -189 l 1
 266 -132 l 1
 350 48 l 1
 187 142 100 317 100 513 c 0
 100 805 293 1052 638 1052 c 0
EndSplineSet
EndChar

StartChar: p
Encoding: 102 112 229
Width: 1248
VWidth: 0
Flags: HW
LayerCount: 2
Fore
SplineSet
635 168 m 0
 825 168 902 328 902 515 c 0
 902 707 819 861 635 861 c 0
 451 861 366 707 366 515 c 0
 366 328 445 168 635 168 c 0
378 95 m 1
 378 -400 l 1
 145 -400 l 1
 145 692 l 2
 145 793 135 919 128 1026 c 1
 376 1026 l 1
 376 840 l 1
 433 980.511627907 573 1052 678 1052 c 0
 978 1052 1148 809 1148 525 c 0
 1148 240 989 -23 667 -23 c 0
 560 -23 456 25 378 95 c 1
EndSplineSet
EndChar

StartChar: paragraph
Encoding: 139 182 230
Width: 1214
VWidth: 0
Flags: HW
LayerCount: 2
Fore
SplineSet
596 -139 m 1
 393 -139 l 1
 393 739 l 1
 227 755 77 893 77 1094 c 0
 77 1354 320 1424 598 1424 c 2
 1004 1424 l 1
 1004 1242 l 1
 921 1242 l 1
 921 -139 l 1
 731 -139 l 1
 731 1242 l 1
 596 1242 l 1
 596 -139 l 1
EndSplineSet
EndChar

StartChar: parenleft
Encoding: 30 40 231
Width: 628
VWidth: 0
Flags: HW
LayerCount: 2
Fore
SplineSet
619 -243 m 1
 397 -243 l 1
 237 0 112 293 112 583 c 0
 112 888 223 1161 389 1424 c 1
 619 1424 l 1
 447 1154 348 862 348 581 c 0
 348 320 460 15 619 -243 c 1
EndSplineSet
EndChar

StartChar: parenright
Encoding: 31 41 232
Width: 628
VWidth: 0
Flags: HW
LayerCount: 2
Fore
SplineSet
230 -243 m 1
 -4 -243 l 1
 151 6 260 300 260 602 c 0
 260 844 163 1154 -10 1424 c 1
 215 1424 l 1
 377 1178 494 879 494 591 c 0
 494 280 387 11 230 -243 c 1
EndSplineSet
EndChar

StartChar: partialdiff
Encoding: 401 8706 233
Width: 1167
VWidth: 0
Flags: HW
LayerCount: 2
Fore
SplineSet
566 1002 m 0
 622 1002 711 1005 820 929 c 1
 814 1170 715 1312 549 1312 c 0
 469 1312 353 1254 251 1186 c 1
 237 1398 l 1
 324 1461 447 1501 565 1501 c 0
 875 1501 1065 1294 1065 828 c 0
 1065 407 877 -24 481 -24 c 0
 199 -24 53 172 53 427 c 0
 53 749 280 1002 566 1002 c 0
481 169 m 0
 639 169 762 406 806 646 c 1
 769 731 686 815 589 815 c 0
 422 815 294 633 294 423 c 0
 294 270 365 169 481 169 c 0
EndSplineSet
EndChar

StartChar: percent
Encoding: 27 37 234
Width: 1985
VWidth: 0
Flags: HW
LayerCount: 2
Fore
SplineSet
1390 -27 m 0
 1166 -27 1027 135 1027 351 c 0
 1027 560 1165 730 1390 730 c 0
 1615 730 1753 560 1753 351 c 0
 1753 135 1614 -27 1390 -27 c 0
1390 123 m 0
 1499 123 1552 224 1552 351 c 0
 1552 468 1506 580 1390 580 c 0
 1274 580 1228 468 1228 351 c 0
 1228 224 1281 123 1390 123 c 0
516 653 m 0
 292 653 153 815 153 1031 c 0
 153 1240 291 1410 516 1410 c 0
 741 1410 879 1240 879 1031 c 0
 879 815 740 653 516 653 c 0
516 803 m 0
 625 803 678 904 678 1031 c 0
 678 1148 632 1260 516 1260 c 0
 400 1260 354 1148 354 1031 c 0
 354 904 407 803 516 803 c 0
406 -5 m 1
 1314 1409 l 1
 1509 1409 l 1
 600 -5 l 1
 406 -5 l 1
EndSplineSet
EndChar

StartChar: period
Encoding: 36 46 235
Width: 540
VWidth: 0
Flags: HW
LayerCount: 2
Fore
SplineSet
398 262 m 1
 398 0 l 1
 119 0 l 1
 119 262 l 1
 398 262 l 1
EndSplineSet
EndChar

StartChar: periodcentered
Encoding: 140 183 236
Width: 444
VWidth: 0
Flags: HW
LayerCount: 2
Fore
SplineSet
307 745 m 1
 307 482 l 1
 19 482 l 1
 19 745 l 1
 307 745 l 1
EndSplineSet
EndChar

StartChar: perthousand
Encoding: 394 8240 237
Width: 2386
VWidth: 0
Flags: HW
LayerCount: 2
Fore
SplineSet
2125 -43 m 0
 1901 -43 1762 119 1762 335 c 0
 1762 544 1900 714 2125 714 c 0
 2350 714 2488 544 2488 335 c 0
 2488 119 2349 -43 2125 -43 c 0
2125 107 m 0
 2234 107 2287 208 2287 335 c 0
 2287 452 2241 564 2125 564 c 0
 2009 564 1963 452 1963 335 c 0
 1963 208 2016 107 2125 107 c 0
1302 -43 m 0
 1078 -43 939 119 939 335 c 0
 939 544 1077 714 1302 714 c 0
 1527 714 1665 544 1665 335 c 0
 1665 119 1526 -43 1302 -43 c 0
1302 107 m 0
 1411 107 1464 208 1464 335 c 0
 1464 452 1418 564 1302 564 c 0
 1186 564 1140 452 1140 335 c 0
 1140 208 1193 107 1302 107 c 0
428 637 m 0
 204 637 65 799 65 1015 c 0
 65 1224 203 1394 428 1394 c 0
 653 1394 791 1224 791 1015 c 0
 791 799 652 637 428 637 c 0
428 787 m 0
 537 787 590 888 590 1015 c 0
 590 1132 544 1244 428 1244 c 0
 312 1244 266 1132 266 1015 c 0
 266 888 319 787 428 787 c 0
318 -21 m 1
 1226 1393 l 1
 1421 1393 l 1
 512 -21 l 1
 318 -21 l 1
EndSplineSet
EndChar

StartChar: plus
Encoding: 33 43 238
Width: 1458
VWidth: 0
Flags: HW
LayerCount: 2
Fore
SplineSet
166 651 m 1
 588 651 l 1
 588 1047 l 1
 808 1047 l 1
 808 651 l 1
 1229 651 l 1
 1229 454 l 1
 807 454 l 1
 807 57 l 1
 586 57 l 1
 586 454 l 1
 166 454 l 1
 166 651 l 1
EndSplineSet
EndChar

StartChar: plusminus
Encoding: 134 177 239
Width: 1458
VWidth: 0
Flags: HW
LayerCount: 2
Fore
SplineSet
229 749 m 1
 581 749 l 1
 581 1062 l 1
 805 1062 l 1
 805 749 l 1
 1168 749 l 1
 1168 557 l 1
 814 557 l 1
 814 249 l 1
 586 249 l 1
 586 557 l 1
 229 557 l 1
 229 749 l 1
1174 0 m 1
 227 0 l 1
 227 192 l 1
 1174 192 l 1
 1174 0 l 1
EndSplineSet
EndChar

StartChar: product
Encoding: 403 8719 240
Width: 1568
VWidth: 0
Flags: HW
LayerCount: 2
Fore
SplineSet
476 -308 m 1
 217 -308 l 1
 217 1203 l 1
 93 1203 l 1
 59 1396 l 1
 1446 1396 l 1
 1411 1203 l 1
 1319 1203 l 1
 1319 -308 l 1
 1053 -308 l 1
 1053 1203 l 1
 476 1203 l 1
 476 -308 l 1
EndSplineSet
EndChar

StartChar: q
Encoding: 103 113 241
Width: 1241
VWidth: 0
Flags: HW
LayerCount: 2
Fore
SplineSet
613 168 m 0
 803 168 882 328 882 515 c 0
 882 707 797 861 613 861 c 0
 429 861 346 707 346 515 c 0
 346 328 423 168 613 168 c 0
870 -400 m 1
 870 95 l 1
 792 25 688 -23 581 -23 c 0
 259 -23 100 240 100 525 c 0
 100 809 272 1052 584 1052 c 0
 683 1052 815.900024414 997 871 870 c 5
 872 1026 l 1
 1113 1026 l 1
 1106 934 1103 828 1103 742 c 2
 1103 -400 l 1
 870 -400 l 1
EndSplineSet
EndChar

StartChar: question
Encoding: 53 63 242
Width: 1032
VWidth: 0
Flags: HW
LayerCount: 2
Fore
SplineSet
551 262 m 1
 551 0 l 1
 272 0 l 1
 272 262 l 1
 551 262 l 1
144 1168 m 1
 144 1380 l 1
 260 1429 378 1454 485 1454 c 0
 718 1454 900 1337 900 1095 c 0
 900 817 625 769 539 555 c 0
 525 519 522 478 522 426 c 0
 522 408 523 384 523 363 c 1
 298 363 l 1
 298 513 l 2
 298 772 659 885 659 1088 c 0
 659 1204 571 1248 453 1248 c 0
 359 1248 246 1216 144 1168 c 1
EndSplineSet
EndChar

StartChar: quotedbl
Encoding: 24 34 244
Width: 720
VWidth: 0
Flags: HW
LayerCount: 2
Fore
SplineSet
285 926 m 1
 123 926 l 1
 72 1424 l 1
 332 1424 l 1
 285 926 l 1
606 926 m 1
 445 926 l 1
 394 1424 l 1
 656 1424 l 1
 606 926 l 1
EndSplineSet
EndChar

StartChar: quotedblbase
Encoding: 389 8222 245
Width: 1024
VWidth: 0
Flags: HW
LayerCount: 2
Fore
SplineSet
466 -223 m 1
 577 253 l 1
 837 253 l 1
 670 -223 l 1
 466 -223 l 1
130 -223 m 1
 240 253 l 1
 500 253 l 1
 339 -223 l 1
 130 -223 l 1
EndSplineSet
EndChar

StartChar: quotedblleft
Encoding: 387 8220 246
Width: 1024
VWidth: 0
Flags: HW
LayerCount: 2
Fore
SplineSet
957 1436 m 1
 845 959 l 1
 603 959 l 1
 750 1436 l 1
 957 1436 l 1
567 1436 m 1
 454 959 l 1
 193 959 l 1
 359 1436 l 1
 567 1436 l 1
EndSplineSet
EndChar

StartChar: quotedblright
Encoding: 388 8221 247
Width: 1024
VWidth: 0
Flags: HW
LayerCount: 2
Fore
SplineSet
584 959 m 1
 696 1436 l 1
 955 1436 l 1
 787 959 l 1
 584 959 l 1
221 959 m 1
 330 1436 l 1
 592 1436 l 1
 425 959 l 1
 221 959 l 1
EndSplineSet
EndChar

StartChar: quoteleft
Encoding: 384 8216 248
Width: 553
VWidth: 0
Flags: HW
LayerCount: 2
Fore
SplineSet
449 1436 m 1
 339 959 l 1
 79 959 l 1
 245 1436 l 1
 449 1436 l 1
EndSplineSet
EndChar

StartChar: quoteright
Encoding: 385 8217 249
Width: 553
VWidth: 0
Flags: HW
LayerCount: 2
Fore
SplineSet
88 959 m 1
 199 1436 l 1
 458 1436 l 1
 291 959 l 1
 88 959 l 1
EndSplineSet
EndChar

StartChar: quotesinglbase
Encoding: 386 8218 250
Width: 553
VWidth: 0
Flags: HW
LayerCount: 2
Fore
SplineSet
72 -223 m 1
 186 253 l 1
 445 253 l 1
 279 -223 l 1
 72 -223 l 1
EndSplineSet
EndChar

StartChar: quotesingle
Encoding: 29 39 251
Width: 554
VWidth: 0
Flags: HW
LayerCount: 2
Fore
SplineSet
356 926 m 1
 168 926 l 1
 129 1424 l 1
 391 1424 l 1
 356 926 l 1
EndSplineSet
EndChar

StartChar: r
Encoding: 104 114 252
Width: 781
VWidth: 0
Flags: HW
LayerCount: 2
Fore
SplineSet
382 0 m 1
 146 0 l 1
 146 768 l 2
 146 832 134 957 128 1026 c 1
 379 1026 l 1
 379 846 l 5
 451 972.578313253 530 1052 639 1052 c 0
 670 1052 705 1047 742 1037 c 1
 742 830 l 1
 700 844 658 851 620 851 c 0
 485 851 382 761 382 579 c 2
 382 0 l 1
EndSplineSet
EndChar

StartChar: radical
Encoding: 405 8730 253
Width: 1314
VWidth: 0
Flags: HW
LayerCount: 2
Fore
SplineSet
633 243 m 1
 637 231 l 1
 643 260 l 1
 996 1560 l 1
 1210 1560 l 1
 756 -144 l 1
 561 -144 l 1
 252 643 l 1
 249 642 243 640 240 640 c 2
 90 613 l 1
 49 783 l 1
 408 841 l 1
 633 243 l 1
EndSplineSet
EndChar

StartChar: registered
Encoding: 131 174 256
Width: 1829
VWidth: 0
Flags: HW
LayerCount: 2
Fore
SplineSet
897 -23 m 0
 443 -23 84 321 84 733 c 0
 84 1141 449 1483 889 1483 c 0
 1340 1483 1703 1136 1703 730 c 0
 1703 319 1340 -23 897 -23 c 0
895 96 m 0
 1270 96 1559 371 1559 728 c 0
 1559 1090 1269 1363 892 1363 c 0
 515 1363 227 1091 227 733 c 0
 227 372 517 96 895 96 c 0
749 1045 m 1
 749 820 l 1
 847 820 l 2
 978 820 1055 829 1055 926 c 0
 1055 1034 999 1045 841 1045 c 2
 749 1045 l 1
840 652 m 1
 749 652 l 1
 749 288 l 1
 538 288 l 1
 538 1214 l 1
 837 1214 l 2
 1125 1214 1266 1116 1266 939 c 0
 1266 826 1209 717 1035 685 c 1
 1109 636 1166 548 1316 288 c 1
 1055 288 l 1
 920 572 888 626 840 652 c 1
EndSplineSet
EndChar

StartChar: ring
Encoding: 372 730 257
Width: 605
VWidth: 0
Flags: HW
LayerCount: 2
Fore
SplineSet
188 1079 m 0
 31 1079 -44 1182 -44 1286 c 0
 -44 1391 34 1499 188 1499 c 0
 340 1499 418 1391 418 1286 c 0
 418 1182 343 1079 188 1079 c 0
120 1287 m 0
 120 1233 153 1206 188 1206 c 0
 221 1206 254 1232 254 1286 c 0
 254 1344 220 1372 187 1372 c 0
 152 1372 120 1344 120 1287 c 0
EndSplineSet
EndChar

StartChar: s
Encoding: 105 115 258
Width: 1047
VWidth: 0
Flags: HW
LayerCount: 2
Fore
SplineSet
180 273 m 1
 124 98 l 1
 262 -8 448 -23 573 -23 c 0
 732 -23 950 54 950 289 c 0
 950 491 759 555 587 618 c 0
 484 656 370 689 370 759 c 0
 370 853 508 861 541 861 c 0
 611 861 714 846 826 777 c 1
 892 951 l 1
 764 1048 618 1052 519 1052 c 0
 360 1052 129 974 129 756 c 0
 129 546 298 491 501 419 c 0
 618 378 711 348 711 278 c 0
 711 171 570 168 528 168 c 0
 431 168 297 192 180 273 c 1
EndSplineSet
EndChar

StartChar: section
Encoding: 124 167 262
Width: 1097
VWidth: 0
Flags: HW
LayerCount: 2
Fore
SplineSet
400 757 m 0
 400 685 465 664 605 601 c 1
 628 627 651 660 651 710 c 0
 651 795 577 816 463 870 c 1
 424 838 400 814 400 757 c 0
835 1435 m 1
 835 1250 l 1
 777 1265 669 1291 578 1291 c 0
 495 1291 427 1280 427 1207 c 0
 427 1145 501 1096 641 1030 c 1
 777 959 912 887 912 744 c 0
 912 649 844 573 765 510 c 1
 842 463 891 392 891 287 c 0
 891 71 708 -23 490 -23 c 0
 387 -23 277 -3 174 37 c 1
 174 237 l 1
 264 200 384 168 480 168 c 0
 574 168 646 198 646 281 c 0
 646 334 581 358 363 465 c 0
 238 526 149 617 149 734 c 0
 149 828 216 912 298 967 c 1
 223 1025 181 1089 181 1195 c 0
 181 1397 353 1483 556 1483 c 0
 647 1483 744 1467 835 1435 c 1
EndSplineSet
EndChar

StartChar: semicolon
Encoding: 49 59 263
Width: 540
VWidth: 0
Flags: HW
LayerCount: 2
Fore
SplineSet
425 1141 m 1
 425 879 l 1
 178 879 l 1
 178 1141 l 1
 425 1141 l 1
72 -240 m 1
 180 259 l 1
 447 259 l 1
 271 -240 l 1
 72 -240 l 1
EndSplineSet
EndChar

StartChar: seven
Encoding: 45 55 264
Width: 1138
VWidth: 0
Flags: HW
LayerCount: 2
Fore
SplineSet
65 1393 m 1
 1056 1393 l 1
 1056 1272 l 1
 495 0 l 1
 236 0 l 1
 777 1194 l 1
 65 1194 l 1
 65 1393 l 1
EndSplineSet
EndChar

StartChar: six
Encoding: 44 54 265
Width: 1242
VWidth: 0
Flags: HW
LayerCount: 2
Fore
SplineSet
659 730 m 0
 493 730 390 614 390 456 c 0
 390 280 517 176 648 176 c 0
 800 176 897 296 897 452 c 0
 897 608 817 730 659 730 c 0
1071 1304 m 1
 991 1131 l 1
 905 1195 812 1231 708 1231 c 0
 511 1231 383 1026 375 769 c 1
 454 878 562 921 678 921 c 0
 961 921 1147 740 1147 455 c 0
 1147 183 956 -23 653 -23 c 0
 295 -23 120 256 120 670 c 0
 120 1084 321 1426 706 1426 c 0
 854 1426 980 1385 1071 1304 c 1
EndSplineSet
EndChar

StartChar: slash
Encoding: 37 47 266
Width: 717
VWidth: 0
Flags: HW
LayerCount: 2
Fore
SplineSet
150 -201 m 1
 -88 -201 l 1
 531 1424 l 1
 774 1424 l 1
 150 -201 l 1
EndSplineSet
EndChar

StartChar: sterling
Encoding: 120 163 268
Width: 1189
VWidth: 0
Flags: HW
LayerCount: 2
Fore
SplineSet
1063 1410 m 1
 1007 1227 l 1
 929 1263 848 1290 753 1290 c 0
 573 1290 491 1195 491 955 c 0
 491 920 492 878 496 838 c 1
 808 838 l 1
 808 661 l 1
 504 661 l 1
 504 575 484 291 412 195 c 1
 1074 195 l 1
 1074 0 l 1
 84 0 l 1
 81 179 l 1
 162 252 255 335 255 616 c 2
 255 661 l 1
 83 661 l 1
 83 838 l 1
 252 838 l 1
 252 901 l 2
 252 1220 335 1483 736 1483 c 0
 868 1483 974 1460 1063 1410 c 1
EndSplineSet
EndChar

StartChar: summation
Encoding: 404 8721 269
Width: 1264
VWidth: 0
Flags: HW
LayerCount: 2
Fore
SplineSet
397 1200 m 1
 909 556 l 1
 381 -105 l 1
 1206 -105 l 1
 1206 -308 l 1
 28 -308 l 1
 28 -180 l 1
 622 553 l 1
 50 1272 l 1
 50 1396 l 1
 1163 1396 l 1
 1163 1200 l 1
 397 1200 l 1
EndSplineSet
EndChar

StartChar: t
Encoding: 106 116 270
Width: 797
VWidth: 0
Flags: HW
LayerCount: 2
Fore
SplineSet
197 388 m 2
 197 868 l 1
 4 868 l 1
 4 1026 l 1
 205 1026 l 1
 205 1271 l 1
 432 1340 l 1
 432 1026 l 1
 673 1026 l 1
 673 868 l 1
 432 868 l 1
 432 360 l 2
 432 180 534 182 674 182 c 1
 674 1 l 1
 458 1 197 -14 197 388 c 2
EndSplineSet
EndChar

StartChar: thorn
Encoding: 211 254 272
Width: 1230
VWidth: 0
Flags: HW
LayerCount: 2
Fore
SplineSet
366 494 m 0
 366 306 453 167 622 167 c 0
 805 167 882 335 882 521 c 0
 882 696 820 859 630 859 c 0
 433 859 366 685 366 494 c 0
366 59 m 1
 365 -400 l 1
 143 -400 l 1
 143 1542 l 1
 371 1542 l 1
 368 962 l 1
 447 1015 534 1051 626 1051 c 0
 974 1051 1130 808 1130 525 c 0
 1130 240 972 -23 650 -23 c 0
 543 -23 444 8 366 59 c 1
EndSplineSet
EndChar

StartChar: three
Encoding: 41 51 273
Width: 1250
VWidth: 0
Flags: HW
LayerCount: 2
Fore
SplineSet
210 1040 m 1
 66 1202 l 1
 178 1349 361 1422 591 1422 c 0
 831 1422 1064 1292 1064 1048 c 0
 1064 903 979 772 779 742 c 1
 979 705 1101 565 1101 398 c 0
 1101 136 863 -23 588 -23 c 0
 347 -23 152 54 80 203 c 1
 207 366 l 1
 281 244 421 176 579 176 c 0
 730 176 851 263 851 403 c 0
 851 566 722 629 511 629 c 0
 487 629 438 629 396 627 c 1
 391 825 l 1
 425 824 487 824 495 824 c 0
 698 824 808 879 808 1054 c 0
 808 1169 710 1225 578 1225 c 0
 429 1225 298 1169 210 1040 c 1
EndSplineSet
EndChar

StartChar: uni00B3
Encoding: 136 179 275
Width: 1190
VWidth: 0
Flags: HW
LayerCount: 2
Fore
SplineSet
229 1169 m 1
 163 1317 l 1
 251 1372 365 1413 481 1413 c 0
 620 1413 764 1334 764 1188 c 0
 764 1125 739 1038 644 1001 c 1
 741 958 784 893 784 813 c 0
 784 630 648 547 485 547 c 0
 383 547 269 580 172 641 c 1
 239 791 l 1
 335 730 430 713 483 713 c 0
 546 713 587 749 587 816 c 0
 587 883 525 908 421 908 c 2
 334 908 l 1
 334 1085 l 1
 418 1085 l 2
 502 1085 565 1105 565 1165 c 0
 565 1220 524 1247 469 1247 c 0
 397 1247 307 1217 229 1169 c 1
EndSplineSet
EndChar

StartChar: tilde
Encoding: 374 732 276
Width: 663
VWidth: 0
Flags: HW
LayerCount: 2
Fore
SplineSet
427 1408 m 1
 582 1408 l 1
 568 1260 517 1122 385 1122 c 0
 290 1122 161 1228 98 1228 c 0
 69 1228 46 1201 39 1127 c 1
 -113 1127 l 1
 -103 1283 -38 1408 88 1408 c 0
 203 1408 314 1303 373 1303 c 0
 414 1303 419 1343 427 1408 c 1
EndSplineSet
EndChar

StartChar: trademark
Encoding: 400 8482 277
Width: 1869
VWidth: 0
Flags: HW
LayerCount: 2
Fore
SplineSet
53 1424 m 1
 728 1424 l 1
 742 1264 l 1
 480 1264 l 1
 480 643 l 1
 296 643 l 1
 296 1264 l 1
 53 1264 l 1
 53 1424 l 1
762 1424 m 1
 1005 1424 l 1
 1198 962 l 1
 1399 1424 l 1
 1632 1424 l 1
 1632 643 l 1
 1450 643 l 1
 1450 1068 l 1
 1253 643 l 1
 1118 643 l 1
 939 1058 l 1
 939 643 l 1
 762 643 l 1
 762 1424 l 1
EndSplineSet
EndChar

StartChar: two
Encoding: 40 50 278
Width: 1260
VWidth: 0
Flags: HW
LayerCount: 2
Fore
SplineSet
282 1028 m 1
 137 1168 l 1
 232 1326 413 1421 632 1421 c 0
 905 1421 1094 1273 1094 1038 c 0
 1094 769 713 450 507 249 c 2
 456 199 l 1
 1099 199 l 1
 1099 0 l 1
 142 0 l 1
 142 178 l 1
 345 384 849 840 849 1029 c 0
 849 1162 756 1226 627 1226 c 0
 490 1226 365 1151 282 1028 c 1
EndSplineSet
EndChar

StartChar: uni00B2
Encoding: 135 178 279
Width: 1190
VWidth: 0
Flags: HW
LayerCount: 2
Fore
SplineSet
299 1169 m 1
 234 1317 l 1
 329 1379 445 1413 549 1413 c 0
 707 1413 840 1335 840 1158 c 0
 840 996 686 867 518 741 c 1
 829 741 l 1
 829 564 l 1
 245 564 l 1
 245 725 l 1
 588 1000 646 1093 646 1156 c 0
 646 1221 600 1247 536 1247 c 0
 466 1247 374 1215 299 1169 c 1
EndSplineSet
EndChar

StartChar: u
Encoding: 107 117 280
Width: 1173
VWidth: 0
Flags: HW
LayerCount: 2
Back
SplineSet
512 168 m 4
 716 168 799 318 799 515 c 4
 799 717 710 861 512 861 c 4
 314 861 223 717 223 515 c 4
 223 317 308 168 512 168 c 4
481 1052 m 5
 609 1051 735 989 791 879 c 5
 791 1026 l 5
 1022 1026 l 5
 1022 0 l 5
 786 0 l 5
 786 155 l 5
 725 32 594 -23 481 -23 c 4
 142 -23 -12 254 -12 504 c 4
 -12 781 143 1052 481 1052 c 5
EndSplineSet
Fore
SplineSet
791 412 m 2
 791 1026 l 1
 1027 1026 l 1
 1027 272 l 2
 1027 153 1045 0 1045 0 c 1
 799 0 l 1
 789 157 l 1
 756.602189781 64.2307692308 625.047445255 -23 520 -23 c 0
 202 -23 118 195 118 396 c 2
 118 1026 l 1
 352 1026 l 1
 352 388 l 2
 352 241 426 168 553 168 c 0
 705 168 791 284 791 412 c 2
EndSplineSet
EndChar

StartChar: underscore
Encoding: 85 95 285
Width: 998
VWidth: 0
Flags: HW
LayerCount: 2
Fore
SplineSet
989 -71 m 1
 989 -257 l 1
 -33 -257 l 1
 -33 -71 l 1
 989 -71 l 1
EndSplineSet
EndChar

StartChar: macron
Encoding: 132 175 286
Width: 850
VWidth: 0
Flags: HW
LayerCount: 2
Fore
SplineSet
957 1479 m 1
 957 1294 l 1
 79 1294 l 1
 79 1479 l 1
 957 1479 l 1
EndSplineSet
EndChar

StartChar: uni030F
Encoding: 377 783 315
Width: 969
VWidth: 0
Flags: HW
LayerCount: 2
Fore
SplineSet
571 1105 m 1
 273 1463 l 1
 541 1463 l 1
 741 1105 l 1
 571 1105 l 1
247 1105 m 1
 -97 1463 l 1
 187 1463 l 1
 424 1105 l 1
 247 1105 l 1
EndSplineSet
EndChar

StartChar: uni0311
Encoding: 378 785 316
Width: 629
VWidth: 0
Flags: HW
LayerCount: 2
Fore
SplineSet
292 1261 m 0
 230 1261 154 1237 145 1142 c 1
 -20 1142 l 1
 -6 1337 106 1427 292 1427 c 0
 478 1427 590 1337 604 1142 c 1
 439 1142 l 1
 430 1237 354 1261 292 1261 c 0
EndSplineSet
EndChar

StartChar: uni0326
Encoding: 379 806 317
Width: 540
VWidth: 0
Flags: HW
LayerCount: 2
Fore
SplineSet
10 -679 m 1
 122 -180 l 1
 388 -180 l 1
 210 -679 l 1
 10 -679 l 1
EndSplineSet
EndChar

StartChar: uni2206
Encoding: 402 8710 318
Width: 1309
VWidth: 0
Flags: HW
LayerCount: 2
Fore
SplineSet
332 216 m 1
 913 216 l 1
 811 490 718 740 616 1016 c 1
 521 745 427 486 332 216 c 1
1241 103 m 1
 1241 0 l 1
 10 0 l 1
 10 103 l 1
 514 1402 l 1
 738 1402 l 1
 1241 103 l 1
EndSplineSet
EndChar

StartChar: v
Encoding: 108 118 319
Width: 1124
VWidth: 0
Flags: HW
LayerCount: 2
Fore
SplineSet
571 260 m 1
 848 1026 l 1
 1103 1026 l 1
 669 0 l 1
 453 0 l 1
 21 1026 l 1
 283 1026 l 1
 571 260 l 1
EndSplineSet
EndChar

StartChar: w
Encoding: 109 119 320
Width: 1695
VWidth: 0
Flags: HW
LayerCount: 2
Fore
SplineSet
27 1026 m 1
 280 1026 l 1
 518 288 l 1
 766 1026 l 1
 972 1026 l 1
 1209 286 l 1
 1447 1026 l 1
 1668 1026 l 1
 1290 0 l 1
 1090 0 l 1
 851 724 l 1
 596 0 l 1
 395 0 l 1
 27 1026 l 1
EndSplineSet
EndChar

StartChar: x
Encoding: 110 120 321
Width: 1093
VWidth: 0
Flags: HW
LayerCount: 2
Fore
SplineSet
1084 0 m 1
 801 0 l 1
 538 363 l 1
 457 246 369 117 287 0 c 1
 9 0 l 1
 411 514 l 1
 29 1026 l 1
 313 1026 l 1
 557 671 l 1
 678 841 l 1
 809 1026 l 1
 1074 1026 l 1
 696 518 l 1
 1084 0 l 1
EndSplineSet
EndChar

StartChar: y
Encoding: 111 121 322
Width: 1144
VWidth: 0
Flags: HW
LayerCount: 2
Fore
SplineSet
459 36 m 1
 44 1026 l 1
 305 1026 l 1
 586 304 l 1
 872 1026 l 1
 1123 1026 l 1
 683 -49 l 2
 612 -221 472 -364 260 -406 c 1
 127 -240 l 1
 353 -179 424 -80 449 2 c 2
 459 36 l 1
EndSplineSet
EndChar

StartChar: yen
Encoding: 122 165 325
Width: 1189
VWidth: 0
Flags: HW
LayerCount: 2
Fore
SplineSet
88 722 m 1
 384 722 l 1
 -21 1393 l 1
 269 1393 l 1
 587 852 l 1
 899 1393 l 1
 1168 1393 l 1
 743 722 l 1
 1056 722 l 1
 1056 539 l 1
 697 539 l 1
 697 448 l 1
 1058 448 l 1
 1058 271 l 1
 705 271 l 1
 705 0 l 1
 462 0 l 1
 462 271 l 1
 88 271 l 1
 88 448 l 1
 454 448 l 1
 454 539 l 1
 88 539 l 1
 88 722 l 1
EndSplineSet
EndChar

StartChar: z
Encoding: 112 122 326
Width: 1056
VWidth: 0
Flags: HW
LayerCount: 2
Fore
SplineSet
111 0 m 1
 111 125 l 1
 641 837 l 1
 135 837 l 1
 135 1026 l 1
 965 1026 l 1
 965 903 l 1
 436 188 l 1
 976 188 l 1
 1000 0 l 1
 111 0 l 1
EndSplineSet
EndChar

StartChar: zero
Encoding: 38 48 330
Width: 1259
VWidth: 0
Flags: HW
LayerCount: 2
Fore
SplineSet
630 1231 m 0
 448 1231 364 1016 364 716 c 0
 364 478 401 176 630 176 c 0
 806 176 887 385 887 678 c 0
 887 910 858 1231 630 1231 c 0
628 1426 m 0
 1024 1426 1145 1115 1145 680 c 0
 1145 255 965 -23 626 -23 c 0
 259 -23 114 277 114 704 c 0
 114 1153 292 1426 628 1426 c 0
EndSplineSet
EndChar

StartChar: Hbar
Encoding: 249 294 403
Width: 1488
VWidth: 0
Flags: HW
LayerCount: 2
Fore
SplineSet
404 643 m 1
 404 0 l 1
 159 0 l 1
 159 1456 l 1
 400 1456 l 1
 400 851 l 1
 1086 851 l 1
 1086 1456 l 1
 1329 1456 l 1
 1329 0 l 1
 1090 0 l 1
 1090 643 l 1
 404 643 l 1
EndSplineSet
EndChar

StartChar: Dcroat
Encoding: 229 272 404
Width: 1532
VWidth: 0
Flags: HW
LayerCount: 2
Fore
SplineSet
405 1249 m 1
 405 207 l 1
 616 207 l 2
 990 207 1170 422 1170 724 c 0
 1170 1119 950 1249 524 1249 c 2
 405 1249 l 1
165 0 m 1
 159 1456 l 1
 501 1456 l 2
 996 1456 1426 1256 1426 723 c 0
 1426 279 1119 0 603 0 c 2
 165 0 l 1
EndSplineSet
EndChar

StartChar: dcroat
Encoding: 230 273 405
Width: 1243
VWidth: 0
Flags: W
HStem: -23 191<469.412 758.74> 0 21G<881.68 1113> 861 191<470.407 758.015> 1443 20G<870 1105>
VStem: 100 247<301.267 719.72> 877 228<0 125 302.731 729.001 932 1463>
LayerCount: 2
Fore
SplineSet
613 168 m 0xbc
 803 168 877 328 877 515 c 0
 877 707 797 861 613 861 c 0
 429 861 347 707 347 515 c 0
 347 328 423 168 613 168 c 0xbc
870 922 m 5
 870 1463 l 1
 1105 1463 l 1
 1105 272 l 2
 1105 243 1106 215 1113 0 c 1
 882 0 l 1x7c
 880 125 l 1
 790.128712871 -6.69491525424 671.333333333 -23 567 -23 c 0
 305 -23 100 182 100 508 c 0
 100 802 263 1052 584 1052 c 0
 715 1052 815.699951172 994.583333333 870 922 c 5
EndSplineSet
EndChar
